<?xml version="1.0" encoding="UTF-8" standalone="no"?>
<!-- Created with Inkscape (http://www.inkscape.org/) -->

<svg
   xmlns:dc="http://purl.org/dc/elements/1.1/"
   xmlns:cc="http://creativecommons.org/ns#"
   xmlns:rdf="http://www.w3.org/1999/02/22-rdf-syntax-ns#"
   xmlns:svg="http://www.w3.org/2000/svg"
   xmlns="http://www.w3.org/2000/svg"
   xmlns:sodipodi="http://sodipodi.sourceforge.net/DTD/sodipodi-0.dtd"
   xmlns:inkscape="http://www.inkscape.org/namespaces/inkscape"
   width="306.47552"
   height="56.197262"
   viewBox="0 0 81.088313 14.868859"
   version="1.1"
   id="svg9136"
   inkscape:version="0.92.0 r15299"
   sodipodi:docname="Favorites_udb_text_only.svg">
  <defs
     id="defs9130" />
  <sodipodi:namedview
     id="base"
     pagecolor="#ffffff"
     bordercolor="#666666"
     borderopacity="1.0"
     inkscape:pageopacity="0.0"
     inkscape:pageshadow="2"
     inkscape:zoom="1.979899"
     inkscape:cx="154.77017"
     inkscape:cy="91.650342"
     inkscape:document-units="px"
     inkscape:current-layer="text4594"
     showgrid="false"
     units="px"
     inkscape:window-width="1920"
     inkscape:window-height="1137"
     inkscape:window-x="1912"
     inkscape:window-y="-8"
     inkscape:window-maximized="1"
     fit-margin-top="0"
     fit-margin-left="0"
     fit-margin-right="0"
     fit-margin-bottom="0"
     inkscape:snap-global="false" />
  <metadata
     id="metadata9133">
    <rdf:RDF>
      <cc:Work
         rdf:about="">
        <dc:format>image/svg+xml</dc:format>
        <dc:type
           rdf:resource="http://purl.org/dc/dcmitype/StillImage" />
        <dc:title></dc:title>
      </cc:Work>
    </rdf:RDF>
  </metadata>
  <g
     inkscape:label="Layer 1"
     inkscape:groupmode="layer"
     id="layer1"
     transform="translate(-10.044043,-269.88078)">
    <g
       aria-label="All Games"
       style="font-style:normal;font-variant:normal;font-weight:normal;font-stretch:normal;font-size:20.44046021px;line-height:12.77528667px;font-family:'namco regular';-inkscape-font-specification:'namco regular, ';letter-spacing:0px;word-spacing:0px;fill:#fbe01b;fill-opacity:1;stroke:none;stroke-width:0.51101148px;stroke-linecap:butt;stroke-linejoin:miter;stroke-opacity:1"
       id="text4594">
      <g
         id="g5124">
        <g
           transform="translate(7.6171814,25.390605)"
           id="g5117">
          <path
             transform="matrix(0.26458333,0,0,0.26458333,15.007203,270.97123)"
             style="font-style:normal;font-variant:normal;font-weight:900;font-stretch:normal;font-size:19.75555611px;line-height:6.61458302px;font-family:Nougat;-inkscape-font-specification:'Nougat Heavy';letter-spacing:0px;word-spacing:0px;fill:#999999;fill-opacity:1;stroke:none;stroke-width:0.99999994px;stroke-linecap:butt;stroke-linejoin:miter;stroke-opacity:1"
             d="m -21.248047,-100.07227 c -1.206959,-0.26779 -2.085585,3.519112 -1.490234,2.015629 h -20.16211 c -0.528617,-2.19e-4 -0.987595,0.36405 -1.107421,0.878907 l -3.509766,15.007812 c -0.166198,0.713032 0.375277,1.39489 1.107422,1.394531 h 2.373047 v 34.927735 c -1.01e-4,0.627834 0.508884,1.136819 1.136718,1.136718 h 15.978516 c 0.627834,1.01e-4 1.13682,-0.508884 1.136719,-1.136718 v -15.960938 h 12.601562 c 0.523701,-2.96e-4 0.979404,-0.358405 1.103516,-0.867187 l 3.5097655,-14.41211 c 0.1748163,-0.715604 -0.3668679,-1.405892 -1.1035156,-1.40625 H -25.785156 v -1.384765 h 14.767578 c 0.525003,3.86e-4 0.98195,-0.358875 1.1054686,-0.869141 l 4.3300782,-17.919922 c 0.173502,-0.715701 -0.3690383,-1.404901 -1.1054688,-1.404301 z m 170.564457,0 c -0.51771,2.8e-4 -0.9698,0.350398 -1.09961,0.851567 l -3.28516,12.693359 c -0.18662,0.719504 0.3563,1.421533 1.09961,1.421875 h 14.85937 c 0.51362,2.41e-4 0.96358,-0.344028 1.09766,-0.839843 l 3.4336,-12.69336 c 0.19572,-0.722782 -0.34885,-1.434018 -1.09766,-1.433598 z m 32.83984,7.093754 c -0.0804,0.0026 -0.16025,0.01373 -0.23828,0.0332 l -14.85938,3.658203 c -0.508,0.124877 -0.86515,0.580387 -0.86523,1.103515 v 3.867188 h -0.43164 c -0.52069,3.04e-4 -0.97458,0.354403 -1.10156,0.859375 l -2.78321,11.076172 v -10.798829 c 1e-4,-0.627835 -0.50889,-1.13682 -1.13672,-1.136718 h -14.85742 c -0.17261,9.3e-5 -0.34293,0.0395 -0.49804,0.115234 -0.14377,-0.447566 -0.54825,-0.760432 -1.01758,-0.787109 l -1.34571,-0.07422 c -0.01,-7.93e-4 -0.0195,-0.0015 -0.0293,-0.002 -1.92622,-0.05516 -3.94655,0.3609 -6.04883,1.201172 -0.002,8.03e-4 -0.004,0.0011 -0.006,0.002 -1.16701,0.446209 -2.18421,1.005397 -3.07031,1.654297 v -0.972657 c 1e-4,-0.627835 -0.50889,-1.13682 -1.13672,-1.136718 h -14.48438 c -0.52126,5.28e-4 -0.97534,0.35558 -1.10156,0.861328 l -3.04883,12.191406 c -1.00451,-2.992642 -2.63192,-5.674802 -5.04297,-7.90039 -4.0855,-3.771244 -9.193636,-5.675782 -15.107418,-5.675782 -5.86456,0 -10.903702,1.909969 -14.890624,5.685547 -0.0011,0.001 -0.0028,9.52e-4 -0.0039,0.002 -4.140306,3.830956 -6.253906,8.828135 -6.253906,14.712891 0,5.927345 2.029201,10.944745 6.025391,14.783203 3.987722,3.830281 9.055349,5.767578 14.972656,5.767578 6.009467,0 11.168831,-1.903277 15.257811,-5.677734 0.002,-0.002 0.004,-0.0039 0.006,-0.0059 4.10187,-3.838898 6.1836,-8.912414 6.1836,-14.941406 0,-1.212001 -0.1458,-2.359688 -0.32227,-3.492187 h 2.18946 v 22.158203 c -1e-4,0.627831 0.50888,1.136815 1.13671,1.136718 h 14.48438 c 0.62783,1.02e-4 1.13682,-0.508883 1.13672,-1.136718 v -15.605469 c 0,-0.743493 0.0897,-1.455384 0.25976,-2.148437 0.21435,-0.675569 0.49828,-1.248346 0.85547,-1.72461 0.009,-0.01156 0.0172,-0.02328 0.0254,-0.03516 0.35626,-0.514593 0.76223,-0.877077 1.24805,-1.138672 0.0192,-0.0099 0.038,-0.0203 0.0566,-0.03125 0.46979,-0.289114 0.96357,-0.429687 1.57031,-0.429688 0.70155,0 1.27629,0.08888 1.73047,0.240235 0.61997,0.206992 1.28635,-0.150318 1.45703,-0.78125 l 0.29102,-1.076172 c 0.21144,0.309986 0.56226,0.495629 0.9375,0.496094 h 2.37305 v 22.234375 c -1e-4,0.627831 0.50888,1.136815 1.13671,1.136718 h 14.93164 c 0.52126,-5.24e-4 0.97535,-0.355577 1.10157,-0.861328 l 3.58398,-14.335937 c 0.17916,-0.716877 -0.36264,-1.41142 -1.10156,-1.412109 h -2.44727 v -6.828126 c 0.12099,0.04329 0.24845,0.06574 0.37696,0.06641 h 3.93945 v 22.234375 c -1e-4,0.627835 0.50888,1.13682 1.13672,1.136718 h 14.85937 c 0.62783,1.02e-4 1.13682,-0.508883 1.13672,-1.136718 V -68.08203 h 1.47656 c 0.52069,-2.99e-4 0.97459,-0.354399 1.10157,-0.859375 l 3.50976,-13.960938 c 0.18069,-0.71756 -0.3616,-1.413691 -1.10156,-1.414062 h -4.98633 v -7.525391 c 3.8e-4,-0.641035 -0.52916,-1.155549 -1.16992,-1.136719 z m 24.94141,7.914063 c -5.95502,0 -10.97529,1.852198 -14.82422,5.542969 -0.004,0.0039 -0.008,0.0078 -0.0117,0.01172 -3.79867,3.745897 -5.71485,8.682442 -5.71484,14.548828 0,6.869148 2.81839,12.335876 8.27343,15.955079 h 0.002 c 4.65738,3.087484 10.5706,4.59375 17.65039,4.59375 0.94925,0 2.14209,-0.07983 3.58789,-0.228516 1.47113,-0.101431 3.22995,-0.274724 5.28515,-0.525391 0.4623,-0.05568 0.84387,-0.387715 0.96289,-0.83789 l 3.43555,-12.992188 c 0.14038,-0.531949 -0.1204,-1.088069 -0.61914,-1.320312 h 1.46094 c 0.62783,1.02e-4 1.13682,-0.508884 1.13672,-1.136719 v -1.941406 c 0,-6.012666 -1.93211,-11.194147 -5.75391,-15.330078 -3.88099,-4.195653 -8.93043,-6.339844 -14.87109,-6.339844 z m -195.662113,0.07422 c -5.6829572,0 -10.46309588,1.98621 -14.0527345,5.892578 -6.508e-4,6.66e-4 -0.0013,0.0013 -0.00195,0.002 -3.5310144,3.847237 -5.3007813,8.780415 -5.3007813,14.582031 0,5.979366 2.0872358,10.963683 6.1972657,14.654297 3.949e-4,3.59e-4 0.00156,-3.59e-4 0.00195,0 0.00107,9.61e-4 8.822e-4,0.0029 0.00195,0.0039 4.0542913,3.683698 9.2363001,5.401499 15.2949221,5.142578 l -0.04883,0.002 h 1.791015 c 0.394989,2.53e-4 0.761784,-0.20459 0.96875,-0.541015 l 1.105469,-1.798828 v 1.203125 c -1.01e-4,0.627834 0.508885,1.136819 1.136719,1.136718 h 14.933594 c 0.521261,-5.27e-4 0.975341,-0.35558 1.101562,-0.861328 l 3.583985,-14.335937 c 0.179167,-0.716878 -0.362635,-1.411422 -1.101563,-1.412109 h -2.447266 v -19.455079 l 10.220703,35.244141 c 0.140773,0.485974 0.585844,0.820374 1.091797,0.820312 h 17.248047 c 0.499472,-4.71e-4 0.940101,-0.326979 1.085938,-0.804687 L 75.67187,-82.847567 c 0.22314,-0.73004 -0.322557,-1.468105 -1.085937,-1.46875 H 59.203125 c -0.543996,2.24e-4 -1.011553,0.385898 -1.115234,0.919922 l -2.919922,14.984375 -3.367188,-15.015625 c -0.116079,-0.51945 -0.577113,-0.888764 -1.109375,-0.888672 H 35.085938 c -0.306071,5.05e-4 -0.599002,0.124437 -0.8125,0.34375 -0.213025,-0.218829 -0.505154,-0.34272 -0.810547,-0.34375 H 20.470703 c -0.484187,-2.5e-4 -0.915372,0.306283 -1.074219,0.763672 l -0.193359,0.554687 c -2.365324,-1.236477 -4.938033,-1.992187 -7.767578,-1.992187 z m 230.898433,0.15039 c -2.09763,0 -4.06587,0.315735 -5.88476,0.955078 -0.001,4.72e-4 -0.002,0.0015 -0.004,0.002 -1.77771,0.593173 -3.34458,1.495235 -4.66015,2.701171 -1.32152,1.211418 -2.34047,2.708354 -3.04493,4.441407 -3.4e-4,8.36e-4 -0.002,0.0011 -0.002,0.002 -0.70965,1.696966 -1.05469,3.591233 -1.05469,5.654297 0,3.238263 1.36642,6.052563 3.92969,8.125 l 0.006,0.0039 c 1.65241,1.321915 3.94786,2.451152 6.91016,3.472656 1.13207,0.410121 1.9762,0.768972 2.46875,1.03125 0.0948,0.05046 0.1028,0.0638 0.16992,0.105469 -0.0231,0.03343 -0.0202,0.145591 -0.0527,0.171875 -0.0976,0.07877 -0.4028,0.214844 -1.02148,0.214844 -1.24397,0 -3.98204,-1.021627 -7.69922,-3.271485 -0.6525,-0.394673 -1.50086,-0.04748 -1.68945,0.691407 l -3.0625,12.021484 c -0.14481,0.569601 0.16854,1.155654 0.72265,1.351562 5.70647,2.019981 10.67296,3.052735 14.93946,3.052735 4.35702,0 8.01626,-1.050065 10.83789,-3.216797 3.1602,-2.34628 4.78515,-5.893417 4.78515,-10.240234 0,-3.156333 -1.40941,-5.921133 -4.01562,-7.984376 -0.008,-0.006 -0.0155,-0.01182 -0.0234,-0.01758 -1.71912,-1.289336 -4.01811,-2.466674 -6.91797,-3.585937 -0.004,-0.0013 -0.008,-0.0026 -0.0117,-0.0039 -1.15894,-0.434605 -2.0096,-0.825855 -2.49804,-1.121094 -0.16726,-0.101099 -0.22374,-0.15624 -0.29688,-0.216797 0.006,-0.0042 0.005,-0.05109 0.0117,-0.05664 0.0356,-0.02873 0.24817,-0.138672 0.74219,-0.138671 1.23511,0 3.34963,0.865615 6.04883,2.841796 0.62603,0.458467 1.51724,0.168673 1.7539,-0.570312 l 3.50977,-10.976563 c 0.16241,-0.50747 -0.0495,-1.059643 -0.50977,-1.328125 -4.67693,-2.723942 -9.49407,-4.111328 -14.38672,-4.111328 z m -35.38671,12.578125 c 1.27048,0.04313 2.90792,0.613861 3.23437,2.28125 h -6.68555 c 0.15202,-0.512754 0.38159,-0.952472 0.77344,-1.300781 0.009,-0.0077 0.017,-0.0155 0.0254,-0.02344 0.68192,-0.64402 1.48761,-0.957031 2.65235,-0.957031 z m -193.046879,3.433594 c 1.103855,0.08691 3.468122,0.562704 3.492187,2.597656 v 4.835938 h -2.671875 c -1.844366,0 -3.077807,-0.37127 -3.783203,-0.917969 -0.705396,-0.546699 -1.0527344,-1.275408 -1.0527344,-2.574219 0,-1.04917 0.3544754,-1.868105 1.2148434,-2.6875 0.0066,-0.0064 0.0131,-0.01294 0.01953,-0.01953 0.873241,-0.873227 1.73209,-1.234375 2.78125,-1.234375 z m 192.917969,8.511719 h 17.05273 c -4.89502,1.029065 -8.60616,1.609374 -10.50195,1.609375 -3.062,0 -5.14172,-0.583263 -6.55078,-1.609375 z"
             id="path5103"
             inkscape:connector-curvature="0"
             sodipodi:nodetypes="cccccccccccccccccccccccccccccccccccccccccccccccccccccccssccscsccsccccccsccccccccccccccccccccccccccccccccccccccccscccccccsccccccscccccccccccccccccccccccccccccccccccccccccsccccccsccccscsccccccccccccccccccccccccsssccccccsc" />
          <path
             inkscape:connector-curvature="0"
             style="font-style:normal;font-variant:normal;font-weight:900;font-stretch:normal;font-size:19.75555611px;line-height:6.61458302px;font-family:Nougat;-inkscape-font-specification:'Nougat Heavy';letter-spacing:0px;word-spacing:0px;fill:#0e3c9f;fill-opacity:1;stroke:none;stroke-width:0.99999994px;stroke-linecap:butt;stroke-linejoin:miter;stroke-opacity:1"
             d="m -21.248047,-98.935547 -0.671875,2.015625 h -20.980469 l -3.509765,15.007813 h 3.509765 v 36.064453 h 15.978516 v -17.097656 h 13.738281 l 3.5097659,-14.41211 H -26.921875 v -3.658203 h 15.904297 L -6.6875,-98.935547 Z m 170.564457,0 -3.28516,12.693359 h 14.85937 l 3.4336,-12.693359 z m 32.87304,7.09375 -14.85937,3.658203 v 5.003906 h -1.56836 l -3.50781,13.960938 h 5.07617 v 23.371094 h 14.85937 V -69.21875 h 2.61328 l 3.50977,-13.960938 h -6.12305 z m -39.23047,7.914063 c -1.74222,-0.04989 -3.60849,0.324545 -5.5996,1.121093 -2.09067,0.796448 -3.63336,1.891393 -4.62891,3.285157 v -3.658204 h -14.48438 l -3.50976,14.03711 h 3.50976 v 23.294922 h 14.48438 v -15.605469 c 0,-0.846236 0.0997,-1.666469 0.29883,-2.462891 0.24889,-0.796447 0.59692,-1.494455 1.04492,-2.091796 0.448,-0.647106 0.99547,-1.143741 1.64258,-1.492188 0.64711,-0.398236 1.36957,-0.597656 2.16601,-0.597656 0.79645,0 1.49251,0.09977 2.08985,0.298828 l 4.33203,-16.054688 z m 64.13868,0 c -5.72445,0 -10.40334,1.742115 -14.03711,5.226562 -3.584,3.534211 -5.37696,8.11534 -5.37696,13.740234 0,6.570659 2.58874,11.573155 7.76563,15.007813 4.43022,2.936895 10.10433,4.404297 17.02344,4.404297 0.896,0 2.06621,-0.07519 3.50976,-0.22461 1.44356,-0.09953 3.18568,-0.272564 5.22656,-0.521484 l 3.43555,-12.992187 c -5.32622,1.144894 -9.08517,1.716796 -11.27539,1.716797 -4.67911,0 -7.7156,-1.294366 -9.10937,-3.882813 h 22.32617 v -1.941406 c 0,-5.774211 -1.8174,-10.626147 -5.45117,-14.558594 -3.68356,-3.982211 -8.36245,-5.974609 -14.03711,-5.974609 z m -195.662113,0.07422 c -5.4257766,0 -9.8319075,1.841838 -13.216797,5.525391 -3.3351106,3.633789 -5.0019531,8.239348 -5.0019531,13.814453 0,5.724447 1.9415529,10.328053 5.82421872,13.8125 3.83288948,3.484447 8.66232808,5.10241 14.48632838,4.853516 h 1.791015 l 3.210938,-5.226563 v 5.226563 h 14.933594 l 3.583984,-14.335938 H 33.462891 V -83.179688 H 20.470703 l -0.597656,1.716797 c -2.48889,-1.592894 -5.3015,-2.390625 -8.4375,-2.390625 z m 82.509765,0.150391 c -5.624889,0 -10.33017,1.790987 -14.113281,5.375 -3.932443,3.633789 -5.898437,8.26379 -5.898437,13.888672 0,5.674658 1.89267,10.329101 5.675781,13.962891 3.783114,3.633751 8.510881,5.451171 14.185547,5.451171 5.774222,0 10.603658,-1.79294 14.486328,-5.376953 3.88267,-3.633751 5.82422,-8.337079 5.82422,-14.111328 0,-5.624882 -1.94155,-10.23044 -5.82422,-13.814453 -3.88267,-3.584013 -8.661268,-5.375 -14.335938,-5.375 z m 148.388668,0 c -1.99111,0 -3.83294,0.299143 -5.52539,0.896484 -1.64266,0.547553 -3.06119,1.367785 -4.25586,2.462891 -1.19466,1.095131 -2.1146,2.440334 -2.76171,4.033203 -0.64711,1.543131 -0.97071,3.285246 -0.97071,5.226563 0,2.936894 1.16826,5.350634 3.50781,7.242187 1.49334,1.194658 3.68516,2.289578 6.57227,3.285156 2.33956,0.846211 3.50781,1.468977 3.50781,1.867188 0,1.244447 -0.77134,1.867187 -2.31445,1.867187 -1.74222,0 -4.504,-1.145783 -8.28711,-3.435546 l -3.0625,12.021484 c 5.62489,1.991105 10.47877,2.986328 14.56055,2.986328 4.18133,0 7.56585,-0.995223 10.15429,-2.986328 2.88712,-2.140447 4.33204,-5.252221 4.33204,-9.333984 0,-2.837342 -1.19465,-5.202198 -3.58399,-7.09375 -1.59289,-1.194659 -3.80915,-2.338464 -6.64648,-3.433594 -2.38933,-0.896 -3.58399,-1.618463 -3.58399,-2.166016 0,-1.045316 0.64719,-1.568359 1.94141,-1.568359 1.69244,0 3.93315,1.02163 6.7207,3.0625 l 3.50977,-10.976563 c -4.52978,-2.638236 -9.13535,-3.957031 -13.81446,-3.957031 z m -207.248042,0.523437 10.826171,37.332032 H 63.160156 L 74.585938,-83.179688 H 59.203125 l -3.957031,20.308594 -4.554688,-20.308594 z m 110.796872,0 -3.58398,13.960938 h 3.50976 v 23.371094 h 14.93164 l 3.58399,-14.335938 h -3.58399 v -22.996094 z m 61.06446,9.78125 c 1.344,0 2.44088,0.421368 3.28711,1.267579 0.84622,0.846236 1.26757,1.943109 1.26757,3.287109 h -9.33203 c 0,-1.393789 0.44775,-2.490662 1.34375,-3.287109 0.896,-0.846211 2.03982,-1.267579 3.4336,-1.267579 z m -193.046879,3.433594 c 1.09511,0 2.13921,0.374436 3.134765,1.121094 0.995556,0.696894 1.494141,1.567965 1.494141,2.613281 v 5.972657 h -3.808594 c -3.982224,0 -5.9726561,-1.542671 -5.9726561,-4.628907 0,-1.344 0.5230252,-2.514213 1.5683591,-3.509765 1.045334,-1.045317 2.239985,-1.56836 3.583985,-1.56836 z"
             transform="matrix(0.26458333,0,0,0.26458333,15.007203,270.97123)"
             id="path4494" />
          <path
             sodipodi:type="inkscape:offset"
             inkscape:radius="0.27794075"
             inkscape:original="M 26.166016 231.85938 L 24.126953 236.08984 L 19.488281 236.80859 L 22.880859 240.05273 L 22.130859 244.6875 L 26.265625 242.46289 L 30.441406 244.60938 L 29.603516 239.99023 L 32.935547 236.68164 L 28.283203 236.05078 L 26.166016 231.85938 z "
             style="color:#000000;clip-rule:nonzero;display:inline;overflow:visible;visibility:visible;opacity:1;isolation:auto;mix-blend-mode:normal;color-interpolation:sRGB;color-interpolation-filters:linearRGB;solid-color:#000000;solid-opacity:1;vector-effect:none;fill:#999999;fill-opacity:1;fill-rule:nonzero;stroke:none;stroke-width:0.66145831;stroke-linecap:butt;stroke-linejoin:miter;stroke-miterlimit:4;stroke-dasharray:none;stroke-dashoffset:0;stroke-opacity:1;color-rendering:auto;image-rendering:auto;shape-rendering:auto;text-rendering:auto;enable-background:accumulate"
             id="path5109"
             d="m 26.138672,231.58203 a 0.27796854,0.27796854 0 0 0 -0.222656,0.15625 l -1.976563,4.09961 -4.494141,0.69531 a 0.27796854,0.27796854 0 0 0 -0.148437,0.47657 l 3.287109,3.14257 -0.726562,4.49024 a 0.27796854,0.27796854 0 0 0 0.404297,0.28906 l 4.007812,-2.1543 4.044922,2.08008 a 0.27796854,0.27796854 0 0 0 0.400391,-0.29687 l -0.8125,-4.47657 3.228515,-3.20507 a 0.27796854,0.27796854 0 0 0 -0.158203,-0.47266 l -4.507812,-0.61133 -2.050782,-4.06054 a 0.27796854,0.27796854 0 0 0 -0.27539,-0.15235 z"
             transform="matrix(0.40869827,0.00420625,-0.00420625,0.40869827,30.16628,156.29104)" />
          <path
             inkscape:connector-curvature="0"
             transform="matrix(0.40869827,0.00420625,-0.00420625,0.40869827,30.16628,156.29104)"
             style="color:#000000;clip-rule:nonzero;display:inline;overflow:visible;visibility:visible;opacity:1;isolation:auto;mix-blend-mode:normal;color-interpolation:sRGB;color-interpolation-filters:linearRGB;solid-color:#000000;solid-opacity:1;vector-effect:none;fill:#f4ea01;fill-opacity:1;fill-rule:nonzero;stroke:none;stroke-width:0.66145831;stroke-linecap:butt;stroke-linejoin:miter;stroke-miterlimit:4;stroke-dasharray:none;stroke-dashoffset:0;stroke-opacity:1;color-rendering:auto;image-rendering:auto;shape-rendering:auto;text-rendering:auto;enable-background:accumulate"
             inkscape:transform-center-x="-0.00067412792"
             inkscape:transform-center-y="-0.2749688"
             d="m 30.442018,244.60872 -4.175875,-2.14494 -4.134318,2.22399 0.749543,-4.63432 -3.392711,-3.24472 4.639119,-0.71922 2.037507,-4.22934 2.117589,4.18981 4.65196,0.63085 -3.330376,3.30867 z"
             id="path4492" />
        </g>
      </g>
    </g>
  </g>
</svg>
