<?xml version="1.0" encoding="UTF-8" standalone="no"?>
<!-- Created with Inkscape (http://www.inkscape.org/) -->

<svg
   xmlns:dc="http://purl.org/dc/elements/1.1/"
   xmlns:cc="http://creativecommons.org/ns#"
   xmlns:rdf="http://www.w3.org/1999/02/22-rdf-syntax-ns#"
   xmlns:svg="http://www.w3.org/2000/svg"
   xmlns="http://www.w3.org/2000/svg"
   xmlns:xlink="http://www.w3.org/1999/xlink"
   xmlns:sodipodi="http://sodipodi.sourceforge.net/DTD/sodipodi-0.dtd"
   xmlns:inkscape="http://www.inkscape.org/namespaces/inkscape"
   width="120.7065mm"
   height="16.547005mm"
   viewBox="0 0 120.7065 16.547004"
   version="1.1"
   id="svg8"
   inkscape:version="0.92.1 r15371"
   sodipodi:docname="system.svg">
  <defs
     id="defs2">
    <linearGradient
       inkscape:collect="always"
       id="linearGradient4501">
      <stop
         id="stop4499"
         offset="0"
         style="stop-color:#b2b848;stop-opacity:1" />
      <stop
         id="stop4497"
         offset="1"
         style="stop-color:#f8ff01;stop-opacity:1" />
    </linearGradient>
    <linearGradient
       inkscape:collect="always"
       xlink:href="#linearGradient4501"
       id="linearGradient4503"
       x1="69.952583"
       y1="38.32621"
       x2="75.106445"
       y2="12.935606"
       gradientUnits="userSpaceOnUse" />
    <linearGradient
       inkscape:collect="always"
       xlink:href="#linearGradient4501"
       id="linearGradient4565"
       gradientUnits="userSpaceOnUse"
       x1="69.952583"
       y1="38.32621"
       x2="75.106445"
       y2="12.935606" />
    <linearGradient
       inkscape:collect="always"
       xlink:href="#linearGradient4501"
       id="linearGradient4567"
       gradientUnits="userSpaceOnUse"
       x1="69.952583"
       y1="38.32621"
       x2="75.106445"
       y2="12.935606" />
    <linearGradient
       inkscape:collect="always"
       xlink:href="#linearGradient4501"
       id="linearGradient4569"
       gradientUnits="userSpaceOnUse"
       x1="69.952583"
       y1="38.32621"
       x2="75.106445"
       y2="12.935606" />
    <linearGradient
       inkscape:collect="always"
       xlink:href="#linearGradient4501"
       id="linearGradient4571"
       gradientUnits="userSpaceOnUse"
       x1="69.952583"
       y1="38.32621"
       x2="75.106445"
       y2="12.935606" />
    <linearGradient
       inkscape:collect="always"
       xlink:href="#linearGradient4501"
       id="linearGradient4573"
       gradientUnits="userSpaceOnUse"
       x1="69.952583"
       y1="38.32621"
       x2="75.106445"
       y2="12.935606" />
    <linearGradient
       inkscape:collect="always"
       xlink:href="#linearGradient4501"
       id="linearGradient4575"
       gradientUnits="userSpaceOnUse"
       x1="69.952583"
       y1="38.32621"
       x2="75.106445"
       y2="12.935606" />
    <linearGradient
       inkscape:collect="always"
       xlink:href="#linearGradient4501"
       id="linearGradient4577"
       gradientUnits="userSpaceOnUse"
       x1="69.952583"
       y1="38.32621"
       x2="75.106445"
       y2="12.935606" />
    <linearGradient
       inkscape:collect="always"
       xlink:href="#linearGradient4501"
       id="linearGradient4579"
       gradientUnits="userSpaceOnUse"
       x1="69.952583"
       y1="38.32621"
       x2="75.106445"
       y2="12.935606" />
    <linearGradient
       inkscape:collect="always"
       xlink:href="#linearGradient4501"
       id="linearGradient4581"
       gradientUnits="userSpaceOnUse"
       x1="69.952583"
       y1="38.32621"
       x2="75.106445"
       y2="12.935606" />
    <linearGradient
       inkscape:collect="always"
       xlink:href="#linearGradient4501"
       id="linearGradient4583"
       gradientUnits="userSpaceOnUse"
       x1="69.952583"
       y1="38.32621"
       x2="75.106445"
       y2="12.935606" />
  </defs>
  <sodipodi:namedview
     id="base"
     pagecolor="#ffffff"
     bordercolor="#666666"
     borderopacity="1.0"
     inkscape:pageopacity="0.0"
     inkscape:pageshadow="2"
     inkscape:zoom="0.98994949"
     inkscape:cx="384.56585"
     inkscape:cy="-151.02596"
     inkscape:document-units="mm"
     inkscape:current-layer="layer1"
     showgrid="false"
     inkscape:window-width="1920"
     inkscape:window-height="1017"
     inkscape:window-x="-8"
     inkscape:window-y="-8"
     inkscape:window-maximized="1"
     fit-margin-top="0.5"
     fit-margin-left="0.5"
     fit-margin-right="0.5"
     fit-margin-bottom="0.5"
     inkscape:pagecheckerboard="true" />
  <metadata
     id="metadata5">
    <rdf:RDF>
      <cc:Work
         rdf:about="">
        <dc:format>image/svg+xml</dc:format>
        <dc:type
           rdf:resource="http://purl.org/dc/dcmitype/StillImage" />
        <dc:title></dc:title>
      </cc:Work>
    </rdf:RDF>
  </metadata>
  <g
     inkscape:label="Layer 1"
     inkscape:groupmode="layer"
     id="layer1"
     transform="translate(-13.731929,-18.008645)">
    <g
       aria-label="Last Played"
       style="font-style:normal;font-weight:normal;font-size:10.58333302px;line-height:1.25;font-family:sans-serif;letter-spacing:0px;word-spacing:0px;fill:url(#linearGradient4503);fill-opacity:1;stroke:#000000;stroke-width:0.69999999;stroke-miterlimit:4;stroke-dasharray:none;stroke-opacity:1"
       id="text4487">
      <path
         d="m 19.261079,30.064984 q 0.474134,0 1.106312,-0.01976 0.632177,-0.03951 1.303866,-0.07902 0.691445,-0.05927 1.363134,-0.118533 0.671689,-0.07902 1.224844,-0.138289 -0.3556,0.908755 -0.750711,1.817511 -0.375356,0.889 -0.889,1.817511 -1.007533,0.05927 -2.113845,0.09878 -1.086555,0.03951 -2.153355,0.05927 -1.047045,0.01975 -2.015067,0.01975 -0.948267,0 -1.659467,0 0.434623,-1.778 0.869245,-3.496733 0.454378,-1.738489 0.928511,-3.476978 0.474133,-1.738489 0.987778,-3.496734 0.513644,-1.778 1.126066,-3.654778 1.264356,-0.217311 2.350912,-0.276577 1.106311,-0.07902 2.370666,-0.03951 -0.7112,1.718733 -1.264355,3.141133 -0.553156,1.4224 -1.027289,2.726267 -0.454378,1.284111 -0.889,2.528711 -0.414867,1.224844 -0.869245,2.587978 z"
         style="font-style:normal;font-variant:normal;font-weight:normal;font-stretch:normal;font-size:19.75555611px;font-family:'Avengeance Mightiest Avenger';-inkscape-font-specification:'Avengeance Mightiest Avenger, Normal';font-variant-ligatures:normal;font-variant-caps:normal;font-variant-numeric:normal;font-feature-settings:normal;text-align:start;writing-mode:lr-tb;text-anchor:start;fill:url(#linearGradient4565);fill-opacity:1;stroke:#000000;stroke-width:0.69999999;stroke-miterlimit:4;stroke-dasharray:none;stroke-opacity:1"
         id="path4544"
         inkscape:connector-curvature="0" />
      <path
         d="m 27.596072,33.364162 q -1.876778,-0.158045 -3.556,0 1.560689,-3.437467 3.2004,-7.013223 1.659467,-3.595511 3.437467,-7.032978 1.4224,-0.217311 2.686756,-0.237066 1.284111,-0.03951 2.587977,0 0.03951,3.615266 0.05927,7.270044 0.03951,3.635023 -0.118533,7.131756 -0.889,-0.03951 -1.857023,-0.03951 -0.948266,0 -1.837266,0.09878 0.03951,-0.612423 0.05927,-1.2446 0.01976,-0.632178 0.03951,-1.264356 -0.849489,0.03951 -1.698978,0.05927 -0.829734,0 -1.837267,0.07902 -0.276578,0.5334 -0.553156,1.086556 -0.276577,0.553155 -0.612422,1.106311 z m 2.291645,-5.709356 q 0.750711,-0.03951 1.461911,-0.03951 0.7112,0 1.521178,0.07902 0.01975,-1.2446 -0.03951,-2.548467 -0.05927,-1.323622 -0.138289,-2.587978 -0.750711,1.2446 -1.442156,2.548467 -0.691444,1.303867 -1.363133,2.548467 z"
         style="font-style:normal;font-variant:normal;font-weight:normal;font-stretch:normal;font-size:19.75555611px;font-family:'Avengeance Mightiest Avenger';-inkscape-font-specification:'Avengeance Mightiest Avenger, Normal';font-variant-ligatures:normal;font-variant-caps:normal;font-variant-numeric:normal;font-feature-settings:normal;text-align:start;writing-mode:lr-tb;text-anchor:start;fill:url(#linearGradient4567);fill-opacity:1;stroke:#000000;stroke-width:0.69999999;stroke-miterlimit:4;stroke-dasharray:none;stroke-opacity:1"
         id="path4546"
         inkscape:connector-curvature="0" />
      <path
         d="m 37.583124,30.12425 q 0.316089,0.05927 0.730956,0.118534 0.414866,0.05927 0.849489,0.09878 0.434622,0.01975 0.849488,0.01975 0.434623,0 0.790223,-0.01975 0.829733,-0.05927 1.323622,-0.296334 0.513644,-0.256822 0.632178,-0.612422 0.138289,-0.375356 -0.1778,-0.829733 -0.296334,-0.454378 -1.106311,-0.908756 -1.126067,-0.632178 -1.758245,-1.343378 -0.612422,-0.7112 -0.7112,-1.876778 -0.05927,-0.553155 0.09878,-1.126066 0.158044,-0.592667 0.434622,-1.047045 0.434622,-0.770466 1.165578,-1.323622 0.730956,-0.572911 1.619956,-0.948267 0.889,-0.375355 1.857022,-0.572911 0.968022,-0.217311 1.837267,-0.296333 1.027288,-0.09878 1.936044,-0.05927 0.928511,0.03951 1.9558,0.138289 l -1.027289,4.030133 q -0.335844,-0.07902 -0.849489,-0.118533 -0.493889,-0.05927 -1.027289,-0.03951 -0.5334,0.01976 -1.047044,0.09878 -0.493889,0.07902 -0.829733,0.237066 -0.5334,0.276578 -0.968023,0.770467 -0.414866,0.474134 -0.395111,1.106311 0,0.3556 0.276578,0.632178 0.296333,0.276578 0.691444,0.513645 0.395112,0.237066 0.790223,0.434622 0.414866,0.1778 0.651933,0.3556 0.316089,0.237066 0.651933,0.474133 0.335845,0.237067 0.592667,0.5334 0.276578,0.276578 0.414867,0.632178 0.138289,0.3556 0.07902,0.809978 -0.03951,0.316089 -0.1778,0.651933 -0.138289,0.335845 -0.316089,0.612422 -0.809978,1.086556 -2.074333,1.698978 -1.2446,0.592667 -2.686756,0.829734 -1.4224,0.237066 -2.904067,0.197555 -1.461911,-0.05927 -2.706511,-0.296333 z"
         style="font-style:normal;font-variant:normal;font-weight:normal;font-stretch:normal;font-size:19.75555611px;font-family:'Avengeance Mightiest Avenger';-inkscape-font-specification:'Avengeance Mightiest Avenger, Normal';font-variant-ligatures:normal;font-variant-caps:normal;font-variant-numeric:normal;font-feature-settings:normal;text-align:start;writing-mode:lr-tb;text-anchor:start;fill:url(#linearGradient4569);fill-opacity:1;stroke:#000000;stroke-width:0.69999999;stroke-miterlimit:4;stroke-dasharray:none;stroke-opacity:1"
         id="path4548"
         inkscape:connector-curvature="0" />
      <path
         d="m 51.428372,19.317961 q 1.185333,-0.09878 2.4892,-0.158044 1.303867,-0.05927 2.647245,-0.07902 1.343377,-0.03951 2.686755,-0.01976 1.363134,0.01976 2.667,0.09878 -0.316089,1.0668 -0.612422,2.094089 -0.276578,1.007533 -0.493889,2.015066 -0.691444,-0.03951 -1.481667,-0.03951 -0.770466,-0.01975 -1.580444,0.01976 -0.3556,1.224844 -0.750711,2.508956 -0.375356,1.284111 -0.770467,2.587977 -0.375355,1.303867 -0.750711,2.607734 -0.375356,1.284111 -0.691444,2.4892 -0.889,-0.07902 -1.896534,-0.05927 -0.987778,0.01976 -1.876778,0.09878 0.296334,-1.165578 0.592667,-2.429933 0.316089,-1.264356 0.612422,-2.568223 0.316089,-1.323622 0.632178,-2.627489 0.316089,-1.323622 0.651933,-2.587978 -0.750711,-0.03951 -1.560689,0 -0.809977,0.01976 -1.560688,0.05927 0.158044,-0.987778 0.395111,-1.995311 0.256822,-1.007533 0.651933,-2.015067 z"
         style="font-style:normal;font-variant:normal;font-weight:normal;font-stretch:normal;font-size:19.75555611px;font-family:'Avengeance Mightiest Avenger';-inkscape-font-specification:'Avengeance Mightiest Avenger, Normal';font-variant-ligatures:normal;font-variant-caps:normal;font-variant-numeric:normal;font-feature-settings:normal;text-align:start;writing-mode:lr-tb;text-anchor:start;fill:url(#linearGradient4571);fill-opacity:1;stroke:#000000;stroke-width:0.69999999;stroke-miterlimit:4;stroke-dasharray:none;stroke-opacity:1"
         id="path4550"
         inkscape:connector-curvature="0" />
      <path
         d="m 63.64317,33.522206 q 0.948267,-3.457222 1.896534,-6.894689 0.948267,-3.457222 2.173111,-7.072489 0.395111,-0.118533 0.908756,-0.256822 0.5334,-0.138289 1.145822,-0.237067 0.612422,-0.09878 1.264355,-0.158044 0.651934,-0.05927 1.303867,-0.03951 0.474133,0.01976 1.047045,0.05927 0.572911,0.03951 1.145822,0.197556 0.592667,0.138289 1.126067,0.414866 0.553155,0.256823 0.968022,0.7112 0.434622,0.434623 0.691444,1.106312 0.256823,0.671688 0.276578,1.619955 0,1.521178 -0.612422,2.864556 -0.612422,1.343378 -1.778,2.291644 -1.165578,0.948267 -2.864556,1.402645 -1.679222,0.454378 -3.832578,0.158044 -0.256822,0.750711 -0.434622,1.2446 -0.158044,0.493889 -0.296333,0.889 -0.138289,0.395111 -0.276578,0.770467 -0.138289,0.375356 -0.335845,0.869244 -0.750711,0 -1.718733,0 -0.968022,0 -1.797756,0.05927 z m 5.887156,-7.151511 q 0.908756,0.118533 1.659467,-0.03951 0.770467,-0.158045 1.284111,-0.592667 0.375356,-0.3556 0.632178,-0.889 0.256822,-0.5334 0.296333,-1.047045 0.03951,-0.5334 -0.197555,-0.948266 -0.237067,-0.414867 -0.849489,-0.513645 -0.375356,-0.03951 -0.849489,0.01976 -0.454378,0.03951 -0.928511,0.256822 -0.276578,0.928511 -0.5334,1.876778 -0.237067,0.928511 -0.513645,1.876778 z"
         style="font-style:normal;font-variant:normal;font-weight:normal;font-stretch:normal;font-size:19.75555611px;font-family:'Avengeance Mightiest Avenger';-inkscape-font-specification:'Avengeance Mightiest Avenger, Normal';font-variant-ligatures:normal;font-variant-caps:normal;font-variant-numeric:normal;font-feature-settings:normal;text-align:start;writing-mode:lr-tb;text-anchor:start;fill:url(#linearGradient4573);fill-opacity:1;stroke:#000000;stroke-width:0.69999999;stroke-miterlimit:4;stroke-dasharray:none;stroke-opacity:1"
         id="path4552"
         inkscape:connector-curvature="0" />
      <path
         d="m 80.997194,30.064984 q 0.474133,0 1.106311,-0.01976 0.632178,-0.03951 1.303867,-0.07902 0.691444,-0.05927 1.363133,-0.118533 0.671689,-0.07902 1.224845,-0.138289 -0.3556,0.908755 -0.750712,1.817511 -0.375355,0.889 -0.889,1.817511 -1.007533,0.05927 -2.113844,0.09878 -1.086556,0.03951 -2.153356,0.05927 -1.047044,0.01975 -2.015066,0.01975 -0.948267,0 -1.659467,0 0.434622,-1.778 0.869244,-3.496733 0.454378,-1.738489 0.928511,-3.476978 0.474134,-1.738489 0.987778,-3.496734 0.513645,-1.778 1.126067,-3.654778 1.264356,-0.217311 2.350911,-0.276577 1.106311,-0.07902 2.370667,-0.03951 -0.7112,1.718733 -1.264356,3.141133 -0.553155,1.4224 -1.027289,2.726267 -0.454377,1.284111 -0.889,2.528711 -0.414866,1.224844 -0.869244,2.587978 z"
         style="font-style:normal;font-variant:normal;font-weight:normal;font-stretch:normal;font-size:19.75555611px;font-family:'Avengeance Mightiest Avenger';-inkscape-font-specification:'Avengeance Mightiest Avenger, Normal';font-variant-ligatures:normal;font-variant-caps:normal;font-variant-numeric:normal;font-feature-settings:normal;text-align:start;writing-mode:lr-tb;text-anchor:start;fill:url(#linearGradient4575);fill-opacity:1;stroke:#000000;stroke-width:0.69999999;stroke-miterlimit:4;stroke-dasharray:none;stroke-opacity:1"
         id="path4554"
         inkscape:connector-curvature="0" />
      <path
         d="m 89.370769,33.364162 q -1.876778,-0.158045 -3.556001,0 1.560689,-3.437467 3.200401,-7.013223 1.659466,-3.595511 3.437466,-7.032978 1.4224,-0.217311 2.686756,-0.237066 1.284111,-0.03951 2.587978,0 0.03951,3.615266 0.05927,7.270044 0.03951,3.635023 -0.118533,7.131756 -0.889,-0.03951 -1.857022,-0.03951 -0.948267,0 -1.837267,0.09878 0.03951,-0.612423 0.05927,-1.2446 0.01976,-0.632178 0.03951,-1.264356 -0.849489,0.03951 -1.698978,0.05927 -0.829733,0 -1.837267,0.07902 -0.276577,0.5334 -0.553155,1.086556 -0.276578,0.553155 -0.612422,1.106311 z m 2.291644,-5.709356 q 0.750711,-0.03951 1.461911,-0.03951 0.7112,0 1.521178,0.07902 0.01976,-1.2446 -0.03951,-2.548467 -0.05927,-1.323622 -0.138289,-2.587978 -0.750711,1.2446 -1.442156,2.548467 -0.691444,1.303867 -1.363133,2.548467 z"
         style="font-style:normal;font-variant:normal;font-weight:normal;font-stretch:normal;font-size:19.75555611px;font-family:'Avengeance Mightiest Avenger';-inkscape-font-specification:'Avengeance Mightiest Avenger, Normal';font-variant-ligatures:normal;font-variant-caps:normal;font-variant-numeric:normal;font-feature-settings:normal;text-align:start;writing-mode:lr-tb;text-anchor:start;fill:url(#linearGradient4577);fill-opacity:1;stroke:#000000;stroke-width:0.69999999;stroke-miterlimit:4;stroke-dasharray:none;stroke-opacity:1"
         id="path4556"
         inkscape:connector-curvature="0" />
      <path
         d="m 111.66461,19.317961 q -0.98778,1.797756 -1.93605,3.496734 -0.92851,1.679222 -1.87678,3.397955 -0.92851,1.698978 -1.91628,3.516489 -0.96803,1.797756 -2.05458,3.832578 -1.0668,-0.05927 -1.99531,-0.03951 -0.92851,0 -1.83727,0.07902 0.37536,-0.770466 0.80998,-1.718733 0.45438,-0.948267 0.96802,-1.995311 -0.19756,0.03951 -0.5334,0.01975 -0.31609,-0.01975 -0.49389,0.01976 -0.0988,-0.592667 -0.25682,-1.738489 -0.13829,-1.145822 -0.27658,-2.587978 -0.13829,-1.461911 -0.276577,-3.101622 -0.118533,-1.639711 -0.1778,-3.180645 0.493887,-0.05927 1.047047,-0.07902 0.57291,-0.03951 1.14582,-0.03951 0.57291,0 1.12607,0.03951 0.55315,0.01976 1.02729,0.07902 -0.079,0.750711 -0.11854,1.580445 -0.0198,0.809978 -0.0198,1.639711 0,0.829733 0.0198,1.639711 0.0395,0.809978 0.0988,1.540933 0.37536,-0.790222 0.79022,-1.619955 0.43462,-0.849489 0.82974,-1.679222 0.41486,-0.829734 0.79022,-1.580445 0.39511,-0.770467 0.73095,-1.402644 1.16558,-0.158045 2.21263,-0.158045 1.0668,-0.01975 2.17311,0.03951 z"
         style="font-style:normal;font-variant:normal;font-weight:normal;font-stretch:normal;font-size:19.75555611px;font-family:'Avengeance Mightiest Avenger';-inkscape-font-specification:'Avengeance Mightiest Avenger, Normal';font-variant-ligatures:normal;font-variant-caps:normal;font-variant-numeric:normal;font-feature-settings:normal;text-align:start;writing-mode:lr-tb;text-anchor:start;fill:url(#linearGradient4579);fill-opacity:1;stroke:#000000;stroke-width:0.69999999;stroke-miterlimit:4;stroke-dasharray:none;stroke-opacity:1"
         id="path4558"
         inkscape:connector-curvature="0" />
      <path
         d="m 114.92335,25.481695 q 0.49389,-0.07902 1.10631,-0.09878 0.63218,-0.03951 1.26436,-0.05927 0.63218,-0.01975 1.22484,0 0.59267,0 1.04705,0.01976 -0.21731,0.750711 -0.41487,1.382889 -0.1778,0.632178 -0.45438,1.382889 -0.43462,-0.01976 -1.04704,-0.03951 -0.61242,-0.01976 -1.26436,0 -0.63218,0 -1.2446,0.01975 -0.59266,0.01976 -1.02729,0.03951 -0.15804,0.513645 -0.31609,1.007534 -0.15804,0.493889 -0.31608,1.007533 0.47413,0 1.12606,-0.01976 0.65194,-0.01975 1.34338,-0.03951 0.69144,-0.03951 1.36313,-0.07902 0.69145,-0.05927 1.2446,-0.118533 -0.3556,0.928511 -0.75071,1.797755 -0.37535,0.849489 -0.84949,1.758245 -0.98777,0.05927 -2.09409,0.07902 -1.08655,0.01976 -2.15335,0.03951 -1.0668,0 -2.03482,0 -0.94827,-0.01976 -1.63972,-0.01976 0.43463,-1.738489 0.84949,-3.457223 0.41487,-1.718733 0.84949,-3.457222 0.45438,-1.738489 0.94827,-3.496733 0.51364,-1.758245 1.10631,-3.595512 1.02729,-0.158044 2.23238,-0.237066 1.22484,-0.09878 2.46944,-0.138289 1.2446,-0.03951 2.44969,-0.01976 1.22485,0 2.23238,0.01976 -0.39511,0.968022 -0.79022,1.975555 -0.37536,1.007534 -0.75071,1.995312 -0.49389,-0.01976 -1.14583,-0.01976 -0.63217,0 -1.32362,0.01976 -0.69144,0.01975 -1.36313,0.05927 -0.65193,0.01976 -1.18533,0.07902 -0.1778,0.5334 -0.3556,1.106312 -0.1778,0.553155 -0.33585,1.106311 z"
         style="font-style:normal;font-variant:normal;font-weight:normal;font-stretch:normal;font-size:19.75555611px;font-family:'Avengeance Mightiest Avenger';-inkscape-font-specification:'Avengeance Mightiest Avenger, Normal';font-variant-ligatures:normal;font-variant-caps:normal;font-variant-numeric:normal;font-feature-settings:normal;text-align:start;writing-mode:lr-tb;text-anchor:start;fill:url(#linearGradient4581);fill-opacity:1;stroke:#000000;stroke-width:0.69999999;stroke-miterlimit:4;stroke-dasharray:none;stroke-opacity:1"
         id="path4560"
         inkscape:connector-curvature="0" />
      <path
         d="m 119.80142,33.107339 q 0.47414,-1.778 0.90876,-3.417711 0.45438,-1.659467 0.90875,-3.279422 0.47414,-1.639711 0.96803,-3.299178 0.51364,-1.679222 1.12606,-3.516489 0.73096,-0.276578 1.71874,-0.474133 1.00753,-0.217311 1.87677,-0.237067 1.08656,-0.01976 2.1336,0.138289 1.04705,0.138289 1.87678,0.612422 0.84949,0.454378 1.44216,1.323622 0.59266,0.849489 0.77046,2.232378 0.13829,1.126067 -0.0593,2.3114 -0.1778,1.165578 -0.65194,2.271889 -0.45437,1.106311 -1.16557,2.094089 -0.7112,0.968022 -1.6002,1.679222 -1.36314,1.086556 -3.12138,1.580445 -1.73849,0.493889 -3.63502,0.493889 -1.00754,0 -1.89654,-0.138289 -0.889,-0.158044 -1.6002,-0.375356 z m 4.66231,-3.0226 q 1.02729,0.01976 1.91629,-0.454377 0.889,-0.474134 1.54094,-1.264356 0.65193,-0.790222 1.02729,-1.797756 0.37535,-1.027289 0.37535,-2.094089 0,-0.5334 -0.13829,-0.889 -0.13829,-0.3556 -0.3556,-0.572911 -0.21731,-0.217311 -0.49389,-0.316089 -0.27657,-0.09878 -0.55315,-0.118533 -0.25682,-0.01976 -0.57291,0.03951 -0.29634,0.03951 -0.51365,0.118533 -0.59266,1.778001 -1.12606,3.674534 -0.5334,1.876778 -1.10632,3.674533 z"
         style="font-style:normal;font-variant:normal;font-weight:normal;font-stretch:normal;font-size:19.75555611px;font-family:'Avengeance Mightiest Avenger';-inkscape-font-specification:'Avengeance Mightiest Avenger, Normal';font-variant-ligatures:normal;font-variant-caps:normal;font-variant-numeric:normal;font-feature-settings:normal;text-align:start;writing-mode:lr-tb;text-anchor:start;fill:url(#linearGradient4583);fill-opacity:1;stroke:#000000;stroke-width:0.69999999;stroke-miterlimit:4;stroke-dasharray:none;stroke-opacity:1"
         id="path4562"
         inkscape:connector-curvature="0" />
    </g>
  </g>
</svg>
