<svg id="Layer_1" data-name="Layer 1" xmlns="http://www.w3.org/2000/svg" xmlns:xlink="http://www.w3.org/1999/xlink" width="429.228" height="87.14" viewBox="0 0 429.228 87.14">
  <defs>
    <linearGradient id="linear-gradient" x1="374.716" y1="65.51" x2="374.716" y2="14.614" gradientUnits="userSpaceOnUse">
      <stop offset="0" stop-color="#f59331"/>
      <stop offset="0.5" stop-color="#f8eb48"/>
      <stop offset="1" stop-color="#f59331"/>
    </linearGradient>
    <linearGradient id="linear-gradient-2" x1="178.315" y1="65.51" x2="178.315" y2="14.614" xlink:href="#linear-gradient"/>
  </defs>
  <title>Artboard 1</title>
  <rect width="429.228" height="87.14" fill="none"/>
  <g>
    <rect x="341.979" y="14.614" width="65.473" height="50.896" fill="url(#linear-gradient)"/>
    <rect x="21.921" y="14.614" width="312.787" height="50.896" fill="url(#linear-gradient-2)"/>
    <g>
      <path d="M14.614,21.74V14.614h7.307V21.74Zm0,7.307V21.74h7.307v7.307Zm0,7.307V29.047h7.307v7.307Zm0,7.271V36.354h7.307v7.271Zm0,7.307V43.625h7.307v7.307Zm0,7.271V50.932h7.307V58.2Zm0,7.308V58.2h7.307V65.51Zm0,7.125V65.51h7.307v7.125Zm7.307-58.021V7.307h7.271v7.307Zm0,7.125V14.614h7.271V21.74Zm0,50.9V65.51h7.271v7.125Zm7.271,0v7.2H21.921v-7.2Zm0-58.021V7.307H36.5v7.307Zm0,58.021V65.51H36.5v7.125Zm7.307,0v7.2H29.192v-7.2Zm0-58.021V7.307h7.125v7.307Zm0,14.432V21.74h7.125v7.307Zm0,7.307V29.047h7.125v7.307Zm0,7.271V36.354h7.125v7.271Zm0,14.578V50.932h7.125V58.2Zm0,7.308V58.2h7.125V65.51Zm0,7.125V65.51h7.125v7.125Zm7.125,0v7.2H36.5v-7.2Zm0-58.021V7.307h7.307v7.307Zm0,14.432V21.74h7.307v7.307Zm0,7.307V29.047h7.307v7.307Zm0,7.271V36.354h7.307v7.271Zm0,14.578V50.932h7.307V58.2Zm0,7.308V58.2h7.307V65.51Zm0,7.125V65.51h7.307v7.125Zm7.307,0v7.2H43.625v-7.2Zm0-58.021V7.307h7.307v7.307Zm0,14.432V21.74h7.307v7.307Zm0,7.307V29.047h7.307v7.307Zm0,7.271V36.354h7.307v7.271Zm0,14.578V50.932h7.307V58.2Zm0,7.308V58.2h7.307V65.51Zm0,7.125V65.51h7.307v7.125Zm7.307-58.021V7.307h7.271v7.307Zm0,58.021V65.51h7.271v7.125Zm7.271,0v7.2H58.239v-7.2Zm0-58.021V7.307h7.307v7.307Zm0,7.125V14.614h7.307V21.74Zm0,50.9V65.51h7.307v7.125Zm7.307,0v7.2H65.509v-7.2Zm0-50.9V14.614h7.271V21.74Zm0,7.307V21.74h7.271v7.307Zm0,7.307V29.047h7.271v7.307Zm0,7.271V36.354h7.271v7.271Zm0,7.307V43.625h7.271v7.307Zm0,7.271V50.932h7.271V58.2Zm0,7.308V58.2h7.271V65.51Zm0,7.125V65.51h7.271v7.125Zm7.271,0v7.2H72.817v-7.2Zm0-43.589V21.74h7.162v7.307Zm0,7.307V29.047h7.162v7.307Zm0,7.271V36.354h7.162v7.271Zm0,7.307V43.625h7.162v7.307Zm0,7.271V50.932h7.162V58.2Zm0,7.308V58.2h7.162V65.51Zm0,7.125V65.51h7.162v7.125Zm7.162,0v7.2H80.087v-7.2Z"/>
      <path d="M80.087,14.614V7.307h7.307v7.307Zm0,7.125V14.614h7.307V21.74Zm0,7.307V21.74h7.307v7.307Zm0,7.307V29.047h7.307v7.307Zm0,7.271V36.354h7.307v7.271Zm0,7.307V43.625h7.307v7.307Zm0,7.271V50.932h7.307V58.2Zm0,7.308V58.2h7.307V65.51Zm0,7.125V65.51h7.307v7.125Zm7.307-58.021V7.307h7.271v7.307Zm0,58.021V65.51h7.271v7.125Zm7.271,0v7.2H87.394v-7.2Zm0-58.021V7.307h7.307v7.307Zm0,58.021V65.51h7.307v7.125Zm7.307,0v7.2H94.665v-7.2Zm0-58.021V7.307H109.1v7.307Zm0,14.432V21.74H109.1v7.307Zm0,7.307V29.047H109.1v7.307Zm0,14.578V43.625H109.1v7.307Zm0,7.271V50.932H109.1V58.2Zm0,7.308V58.2H109.1V65.51Zm0,7.125V65.51H109.1v7.125Zm7.125,0v7.2h-7.125v-7.2Zm0-58.021V7.307H116.4v7.307Zm0,14.432V21.74H116.4v7.307Zm0,7.307V29.047H116.4v7.307Zm0,14.578V43.625H116.4v7.307Zm0,7.271V50.932H116.4V58.2Zm0,7.308V58.2H116.4V65.51Zm0,7.125V65.51H116.4v7.125Zm7.307,0v7.2H109.1v-7.2Zm0-58.021V7.307h7.307v7.307Zm0,14.432V21.74h7.307v7.307Zm0,7.307V29.047h7.307v7.307Zm0,14.578V43.625h7.307v7.307Zm0,7.271V50.932h7.307V58.2Zm0,7.308V58.2h7.307V65.51Zm0,7.125V65.51h7.307v7.125Zm7.307-58.021V7.307h7.271v7.307Zm0,58.021V65.51h7.271v7.125Zm7.271,0v7.2h-7.271v-7.2Zm0-58.021V7.307h7.307v7.307Zm0,7.125V14.614h7.307V21.74Zm0,21.885V36.354h7.307v7.271Zm0,29.011V65.51h7.307v7.125Zm7.307,0v7.2h-7.307v-7.2Zm0-50.9V14.614h7.271V21.74Zm0,7.307V21.74h7.271v7.307Zm0,7.307V29.047h7.271v7.307Zm0,7.271V36.354h7.271v7.271Zm0,7.307V43.625h7.271v7.307Zm0,7.271V50.932h7.271V58.2Zm0,7.308V58.2h7.271V65.51Zm0,7.125V65.51h7.271v7.125Zm7.271,0v7.2H138.29v-7.2Zm0-43.589V21.74h7.162v7.307Zm0,7.307V29.047h7.162v7.307Zm0,7.271V36.354h7.162v7.271Zm0,7.307V43.625h7.162v7.307Zm0,7.271V50.932h7.162V58.2Zm0,7.308V58.2h7.162V65.51Zm0,7.125V65.51h7.162v7.125Zm7.162,0v7.2H145.56v-7.2Z"/>
      <path d="M145.56,21.74V14.614h7.307V21.74Zm0,7.307V21.74h7.307v7.307Zm0,7.307V29.047h7.307v7.307Zm0,7.271V36.354h7.307v7.271Zm0,7.307V43.625h7.307v7.307Zm0,7.271V50.932h7.307V58.2Zm0,7.308V58.2h7.307V65.51Zm7.307-50.9V7.307h7.271v7.307Zm0,7.125V14.614h7.271V21.74Zm0,43.77V58.2h7.271V65.51Zm0,7.125V65.51h7.271v7.125Zm7.271-58.021V7.307h7.307v7.307Zm0,58.021V65.51h7.307v7.125Zm7.307,0v7.2h-7.307v-7.2Zm0-58.021V7.307h7.125v7.307Zm0,14.432V21.74h7.125v7.307Zm0,7.307V29.047h7.125v7.307Zm0,7.271V36.354h7.125v7.271Zm0,7.307V43.625h7.125v7.307Zm0,7.271V50.932h7.125V58.2Zm0,14.433V65.51h7.125v7.125Zm7.125,0v7.2h-7.125v-7.2Zm0-58.021V7.307h7.307v7.307Zm0,14.432V21.74h7.307v7.307Zm0,7.307V29.047h7.307v7.307Zm0,7.271V36.354h7.307v7.271Zm0,7.307V43.625h7.307v7.307Zm0,7.271V50.932h7.307V58.2Zm0,14.433V65.51h7.307v7.125Zm7.307,0v7.2H174.57v-7.2Zm0-58.021V7.307h7.307v7.307Zm0,14.432V21.74h7.307v7.307Zm0,7.307V29.047h7.307v7.307Zm0,7.271V36.354h7.307v7.271Zm0,7.307V43.625h7.307v7.307Zm0,7.271V50.932h7.307V58.2Zm0,14.433V65.51h7.307v7.125Zm7.307,0v7.2h-7.307v-7.2Zm0-58.021V7.307h7.271v7.307Zm0,21.74V29.047h7.271v7.307Zm0,7.271V36.354h7.271v7.271Zm0,7.307V43.625h7.271v7.307Zm0,21.7V65.51h7.271v7.125Zm7.271,0v7.2h-7.271v-7.2Zm0-58.021V7.307h7.307v7.307Zm0,7.125V14.614h7.307V21.74Zm0,14.614V29.047h7.307v7.307Zm0,7.271V36.354h7.307v7.271Zm0,7.307V43.625h7.307v7.307Zm0,14.578V58.2h7.307V65.51Zm0,7.125V65.51h7.307v7.125Zm7.307,0v7.2h-7.307v-7.2Zm0-50.9V14.614h7.271V21.74Zm0,7.307V21.74h7.271v7.307Zm0,7.307V29.047h7.271v7.307Zm0,7.271V36.354h7.271v7.271Zm0,7.307V43.625h7.271v7.307Zm0,7.271V50.932h7.271V58.2Zm0,7.308V58.2h7.271V65.51Zm0,7.125V65.51h7.271v7.125Zm7.271,0v7.2h-7.271v-7.2Zm0-43.589V21.74h7.162v7.307Zm0,7.307V29.047h7.162v7.307Zm0,7.271V36.354h7.162v7.271Zm0,14.578V50.932h7.162V58.2Zm0,7.308V58.2h7.162V65.51Zm0,7.125V65.51h7.162v7.125Z"/>
      <path d="M211.033,21.74V14.614h7.307V21.74Zm0,7.307V21.74h7.307v7.307Zm0,7.307V29.047h7.307v7.307Zm0,7.271V36.354h7.307v7.271Zm0,7.307V43.625h7.307v7.307Zm0,7.271V50.932h7.307V58.2Zm0,7.308V58.2h7.307V65.51Zm0,7.125V65.51h7.307v7.125Zm7.307-58.021V7.307h7.271v7.307Zm0,7.125V14.614h7.271V21.74Zm0,50.9V65.51h7.271v7.125Zm7.271,0v7.2H218.34v-7.2Zm0-58.021V7.307h7.307v7.307Zm0,58.021V65.51h7.307v7.125Zm7.307,0v7.2h-7.307v-7.2Zm0-58.021V7.307h7.125v7.307Zm0,14.432V21.74h7.125v7.307Zm0,7.307V29.047h7.125v7.307Zm0,7.271V36.354h7.125v7.271Zm0,14.578V50.932h7.125V58.2Zm0,7.308V58.2h7.125V65.51Zm0,7.125V65.51h7.125v7.125Zm7.125,0v7.2h-7.125v-7.2Zm0-58.021V7.307h7.307v7.307Zm0,14.432V21.74h7.307v7.307Zm0,7.307V29.047h7.307v7.307Zm0,7.271V36.354h7.307v7.271Zm0,14.578V50.932h7.307V58.2Zm0,7.308V58.2h7.307V65.51Zm0,7.125V65.51h7.307v7.125Zm7.307,0v7.2h-7.307v-7.2Zm0-58.021V7.307h7.307v7.307Zm0,14.432V21.74h7.307v7.307Zm0,7.307V29.047h7.307v7.307Zm0,7.271V36.354h7.307v7.271Zm0,14.578V50.932h7.307V58.2Zm0,7.308V58.2h7.307V65.51Zm0,7.125V65.51h7.307v7.125Zm7.307-58.021V7.307h7.271v7.307Zm0,58.021V65.51h7.271v7.125Zm7.271,0v7.2h-7.271v-7.2Zm0-58.021V7.307h7.307v7.307Zm0,7.125V14.614h7.307V21.74Zm0,50.9V65.51h7.307v7.125Zm7.307,0v7.2h-7.307v-7.2Zm0-50.9V14.614h7.271V21.74Zm0,7.307V21.74h7.271v7.307Zm0,7.307V29.047h7.271v7.307Zm0,7.271V36.354h7.271v7.271Zm0,7.307V43.625h7.271v7.307Zm0,7.271V50.932h7.271V58.2Zm0,7.308V58.2h7.271V65.51Zm0,7.125V65.51h7.271v7.125Zm7.271,0v7.2h-7.271v-7.2Zm0-43.589V21.74h7.162v7.307Zm0,7.307V29.047h7.162v7.307Zm0,7.271V36.354h7.162v7.271Zm0,7.307V43.625h7.162v7.307Zm0,7.271V50.932h7.162V58.2Zm0,7.308V58.2h7.162V65.51Zm0,7.125V65.51h7.162v7.125Zm7.162,0v7.2h-7.162v-7.2Z"/>
      <path d="M276.506,14.614V7.307h7.307v7.307Zm0,7.125V14.614h7.307V21.74Zm0,7.307V21.74h7.307v7.307Zm0,7.307V29.047h7.307v7.307Zm0,7.271V36.354h7.307v7.271Zm0,7.307V43.625h7.307v7.307Zm0,7.271V50.932h7.307V58.2Zm0,7.308V58.2h7.307V65.51Zm0,7.125V65.51h7.307v7.125Zm7.307-58.021V7.307h7.271v7.307Zm0,58.021V65.51h7.271v7.125Zm7.271,0v7.2h-7.271v-7.2Zm0-58.021V7.307h7.307v7.307Zm0,58.021V65.51h7.307v7.125Zm7.307,0v7.2h-7.307v-7.2Zm0-58.021V7.307h7.125v7.307Zm0,14.432V21.74h7.125v7.307Zm0,7.307V29.047h7.125v7.307Zm0,7.271V36.354h7.125v7.271Zm0,7.307V43.625h7.125v7.307Zm0,7.271V50.932h7.125V58.2Zm0,14.433V65.51h7.125v7.125Zm7.125,0v7.2h-7.125v-7.2Zm0-58.021V7.307h7.307v7.307Zm0,14.432V21.74h7.307v7.307Zm0,7.307V29.047h7.307v7.307Zm0,7.271V36.354h7.307v7.271Zm0,7.307V43.625h7.307v7.307Zm0,7.271V50.932h7.307V58.2Zm0,14.433V65.51h7.307v7.125Zm7.307,0v7.2h-7.307v-7.2Zm0-58.021V7.307h7.307v7.307Zm0,21.74V29.047h7.307v7.307Zm0,7.271V36.354h7.307v7.271Zm0,7.307V43.625h7.307v7.307Zm0,21.7V65.51h7.307v7.125Zm7.307,0v7.2h-7.307v-7.2Zm0-58.021V7.307H327.4v7.307Zm0,7.125V14.614H327.4V21.74Zm0,43.77V58.2H327.4V65.51Zm0,7.125V65.51H327.4v7.125Zm7.271,0v7.2h-7.271v-7.2Zm0-50.9V14.614h7.307V21.74Zm0,7.307V21.74h7.307v7.307Zm0,29.156V50.932h7.307V58.2Zm0,7.308V58.2h7.307V65.51Zm0,7.125V65.51h7.307v7.125Zm7.307,0v7.2H327.4v-7.2Zm0-43.589V21.74h7.271v7.307Zm0,7.307V29.047h7.271v7.307Zm0,7.271V36.354h7.271v7.271Zm0,7.307V43.625h7.271v7.307Zm0,7.271V50.932h7.271V58.2Zm0,7.308V58.2h7.271V65.51Zm0,7.125V65.51h7.271v7.125Zm7.271-36.282V29.047h7.162v7.307Zm0,7.271V36.354h7.162v7.271Zm0,7.307V43.625h7.162v7.307Zm0,7.271V50.932h7.162V58.2Zm0,7.308V58.2h7.162V65.51Z"/>
      <path d="M341.979,14.614V7.307h7.307v7.307Zm0,7.125V14.614h7.307V21.74Zm0,7.307V21.74h7.307v7.307Zm0,7.307V29.047h7.307v7.307Zm0,7.271V36.354h7.307v7.271Zm0,7.307V43.625h7.307v7.307Zm0,7.271V50.932h7.307V58.2Zm0,7.308V58.2h7.307V65.51Zm0,7.125V65.51h7.307v7.125Zm7.307-58.021V7.307h7.271v7.307Zm0,58.021V65.51h7.271v7.125Zm7.271,0v7.2h-7.271v-7.2Zm0-58.021V7.307h7.307v7.307Zm0,58.021V65.51h7.307v7.125Zm7.307,0v7.2h-7.307v-7.2Zm0-58.021V7.307h7.125v7.307Zm0,14.432V21.74h7.125v7.307Zm0,7.307V29.047h7.125v7.307Zm0,14.578V43.625h7.125v7.307Zm0,7.271V50.932h7.125V58.2Zm0,14.433V65.51h7.125v7.125Zm7.125,0v7.2h-7.125v-7.2Zm0-58.021V7.307H378.3v7.307Zm0,14.432V21.74H378.3v7.307Zm0,7.307V29.047H378.3v7.307Zm0,14.578V43.625H378.3v7.307Zm0,7.271V50.932H378.3V58.2Zm0,14.433V65.51H378.3v7.125Zm7.307,0v7.2H370.99v-7.2Zm0-58.021V7.307H385.6v7.307Zm0,14.432V21.74H385.6v7.307Zm0,7.307V29.047H385.6v7.307Zm0,14.578V43.625H385.6v7.307Zm0,7.271V50.932H385.6V58.2Zm0,14.433V65.51H385.6v7.125Zm7.307,0v7.2H378.3v-7.2Zm0-58.021V7.307h7.271v7.307Zm0,14.432V21.74h7.271v7.307Zm0,7.307V29.047h7.271v7.307Zm0,14.578V43.625h7.271v7.307Zm0,7.271V50.932h7.271V58.2Zm0,14.433V65.51h7.271v7.125Zm7.271,0v7.2H385.6v-7.2Zm0-58.021V7.307h7.307v7.307Zm0,14.432V21.74h7.307v7.307Zm0,7.307V29.047h7.307v7.307Zm0,7.271V36.354h7.307v7.271Zm0,7.307V43.625h7.307v7.307Zm0,7.271V50.932h7.307V58.2Zm0,14.433V65.51h7.307v7.125Zm7.307,0v7.2h-7.307v-7.2Zm0-58.021V7.307h7.271v7.307Zm0,7.125V14.614h7.271V21.74Zm0,7.307V21.74h7.271v7.307Zm0,7.307V29.047h7.271v7.307Zm0,7.271V36.354h7.271v7.271Zm0,7.307V43.625h7.271v7.307Zm0,7.271V50.932h7.271V58.2Zm0,7.308V58.2h7.271V65.51Zm0,7.125V65.51h7.271v7.125Zm7.271,0v7.2h-7.271v-7.2Zm0-50.9V14.614h7.162V21.74Zm0,7.307V21.74h7.162v7.307Zm0,7.307V29.047h7.162v7.307Zm0,29.156V58.2h7.162V65.51Zm0,7.125V65.51h7.162v7.125Zm7.162,0v7.2h-7.162v-7.2Z"/>
    </g>
    <rect x="80.832" y="72.635" width="13.125" height="7.198"/>
    <rect x="147.396" y="65.474" width="10.942" height="7.198"/>
    <rect x="278.342" y="72.635" width="10.942" height="7.198"/>
  </g>
</svg>
