<?xml version="1.0" encoding="UTF-8" standalone="no"?>
<!-- Created with Inkscape (http://www.inkscape.org/) -->

<svg
   xmlns:dc="http://purl.org/dc/elements/1.1/"
   xmlns:cc="http://creativecommons.org/ns#"
   xmlns:rdf="http://www.w3.org/1999/02/22-rdf-syntax-ns#"
   xmlns:svg="http://www.w3.org/2000/svg"
   xmlns="http://www.w3.org/2000/svg"
   xmlns:xlink="http://www.w3.org/1999/xlink"
   xmlns:sodipodi="http://sodipodi.sourceforge.net/DTD/sodipodi-0.dtd"
   xmlns:inkscape="http://www.inkscape.org/namespaces/inkscape"
   width="302.34122"
   height="66.533737"
   viewBox="0 0 79.994444 17.603718"
   version="1.1"
   id="svg9136"
   inkscape:version="0.92.0 r15299"
   sodipodi:docname="Collections_udb_text_only.svg">
  <defs
     id="defs9130">
    <linearGradient
       inkscape:collect="always"
       id="linearGradient5821">
      <stop
         style="stop-color:#f9f9f9;stop-opacity:1"
         offset="0"
         id="stop5817" />
      <stop
         id="stop5835"
         offset="0.00909869"
         style="stop-color:#f2f2f2;stop-opacity:1" />
      <stop
         id="stop5825"
         offset="0.0155615"
         style="stop-color:#397491;stop-opacity:1" />
      <stop
         style="stop-color:#26739a;stop-opacity:1"
         offset="0.02873348"
         id="stop5845" />
      <stop
         id="stop5847"
         offset="0.16135378"
         style="stop-color:#41a9eb;stop-opacity:1" />
      <stop
         style="stop-color:#40abed;stop-opacity:1"
         offset="0.30214468"
         id="stop5849" />
      <stop
         style="stop-color:#64c4f7;stop-opacity:1"
         offset="0.39097485"
         id="stop5827" />
      <stop
         id="stop5863"
         offset="0.39864829"
         style="stop-color:#9dd2e0;stop-opacity:1" />
      <stop
         style="stop-color:#d0e5d0;stop-opacity:1"
         offset="0.40362027"
         id="stop5865" />
      <stop
         id="stop5867"
         offset="0.41670442"
         style="stop-color:#bac6a4;stop-opacity:1" />
      <stop
         id="stop5829"
         offset="0.51944453"
         style="stop-color:#ffffff;stop-opacity:1" />
      <stop
         style="stop-color:#92dae5;stop-opacity:1"
         offset="0.53673208"
         id="stop5837" />
      <stop
         id="stop5839"
         offset="0.55384791"
         style="stop-color:#46d2fa;stop-opacity:1" />
      <stop
         style="stop-color:#1daee6;stop-opacity:1"
         offset="0.6138891"
         id="stop5831" />
      <stop
         id="stop5833"
         offset="0.88888937"
         style="stop-color:#1584b6;stop-opacity:1" />
      <stop
         style="stop-color:#0e3f5f;stop-opacity:1"
         offset="0.97140175"
         id="stop5843" />
      <stop
         style="stop-color:#0d365e;stop-opacity:1"
         offset="0.98598969"
         id="stop5841" />
      <stop
         style="stop-color:#758192;stop-opacity:1"
         offset="1"
         id="stop5819" />
    </linearGradient>
    <linearGradient
       inkscape:collect="always"
       xlink:href="#linearGradient5821"
       id="linearGradient5823"
       x1="67.531799"
       y1="288.40228"
       x2="67.531799"
       y2="304.36084"
       gradientUnits="userSpaceOnUse" />
  </defs>
  <sodipodi:namedview
     id="base"
     pagecolor="#ffffff"
     bordercolor="#666666"
     borderopacity="1.0"
     inkscape:pageopacity="0.0"
     inkscape:pageshadow="2"
     inkscape:zoom="1.4"
     inkscape:cx="79.787397"
     inkscape:cy="-145.92176"
     inkscape:document-units="px"
     inkscape:current-layer="text4594"
     showgrid="false"
     units="px"
     inkscape:window-width="1920"
     inkscape:window-height="1137"
     inkscape:window-x="1912"
     inkscape:window-y="-8"
     inkscape:window-maximized="1"
     fit-margin-top="0"
     fit-margin-left="0"
     fit-margin-right="0"
     fit-margin-bottom="0"
     inkscape:snap-global="false" />
  <metadata
     id="metadata9133">
    <rdf:RDF>
      <cc:Work
         rdf:about="">
        <dc:format>image/svg+xml</dc:format>
        <dc:type
           rdf:resource="http://purl.org/dc/dcmitype/StillImage" />
        <dc:title></dc:title>
      </cc:Work>
    </rdf:RDF>
  </metadata>
  <g
     inkscape:label="Layer 1"
     inkscape:groupmode="layer"
     id="layer1"
     transform="translate(-15.591072,-266.7455)">
    <g
       aria-label="All Games"
       style="font-style:normal;font-variant:normal;font-weight:normal;font-stretch:normal;font-size:20.44046021px;line-height:12.77528667px;font-family:'namco regular';-inkscape-font-specification:'namco regular, ';letter-spacing:0px;word-spacing:0px;fill:#fbe01b;fill-opacity:1;stroke:none;stroke-width:0.51101148px;stroke-linecap:butt;stroke-linejoin:miter;stroke-opacity:1"
       id="text4594">
      <g
         id="g5879">
        <g
           transform="matrix(1.0929565,0,0,1.0929565,-13.636082,-69.808833)"
           aria-label="CUSTOM
Collections"
           style="font-style:normal;font-variant:normal;font-weight:normal;font-stretch:normal;font-size:7.29425621px;line-height:4.55890989px;font-family:'namco regular';-inkscape-font-specification:'namco regular, ';letter-spacing:0px;word-spacing:0px;fill:#000000;fill-opacity:1;stroke:none;stroke-width:0.18235639px;stroke-linecap:butt;stroke-linejoin:miter;stroke-opacity:1"
           id="g5764">
          <g
             id="g5800"
             transform="translate(-0.62809086,29.849924)">
            <path
               inkscape:connector-curvature="0"
               id="path5798"
               d="m 111.68164,139.6875 a 0.63140787,0.63140787 0 0 0 -0.44726,0.18359 l -3,3 a 0.63140787,0.63140787 0 0 0 -0.1836,0.44727 v 18 a 0.63140787,0.63140787 0 0 0 0.1836,0.44726 l 3,3 a 0.63140787,0.63140787 0 0 0 0.44726,0.1836 h 18 a 0.63140787,0.63140787 0 0 0 0.63086,-0.63086 v -6 a 0.63140787,0.63140787 0 0 0 -0.63086,-0.63086 H 115.3125 v -10.73828 h 11.36914 a 0.63140787,0.63140787 0 0 0 0.56445,-0.34766 l 3,-6 a 0.63140787,0.63140787 0 0 0 -0.56445,-0.91406 z m 20.67188,0 a 0.63140787,0.63140787 0 0 0 -0.63086,0.63086 v 21 a 0.63140787,0.63140787 0 0 0 0.18359,0.44726 l 3,3 a 0.63140787,0.63140787 0 0 0 0.44727,0.1836 h 15 a 0.63140787,0.63140787 0 0 0 0.56445,-0.34766 l 3,-6 a 0.63140787,0.63140787 0 0 0 0.0664,-0.2832 v -18 a 0.63140787,0.63140787 0 0 0 -0.63086,-0.63086 h -6 a 0.63140787,0.63140787 0 0 0 -0.63086,0.63086 v 17.36914 h -7.73828 v -17.36914 a 0.63140787,0.63140787 0 0 0 -0.63086,-0.63086 z m 26.67187,0 a 0.63140787,0.63140787 0 0 0 -0.44727,0.18359 l -3,3 a 0.63140787,0.63140787 0 0 0 -0.18359,0.44727 v 9 a 0.63140787,0.63140787 0 0 0 0.18359,0.44726 l 3,3 a 0.63140787,0.63140787 0 0 0 0.44727,0.1836 h 11.36914 v 1.73828 h -14.36914 a 0.63140787,0.63140787 0 0 0 -0.63086,0.63086 v 6 a 0.63140787,0.63140787 0 0 0 0.63086,0.63086 h 15 a 0.63140787,0.63140787 0 0 0 0.44727,-0.1836 l 6,-6 a 0.63140787,0.63140787 0 0 0 0.18359,-0.44726 v -9 a 0.63140787,0.63140787 0 0 0 -0.63086,-0.63086 h -14.36914 v -1.73828 h 14.36914 a 0.63140787,0.63140787 0 0 0 0.56445,-0.34766 l 3,-6 a 0.63140787,0.63140787 0 0 0 -0.56445,-0.91406 z m 23.67188,0 a 0.63140787,0.63140787 0 0 0 -0.63086,0.63086 v 6 a 0.63140787,0.63140787 0 0 0 0.63086,0.63086 h 6.86914 v 17.36914 a 0.63140787,0.63140787 0 0 0 0.63086,0.63086 h 6 a 0.63140787,0.63140787 0 0 0 0.63085,-0.63086 v -17.36914 h 3.86915 a 0.63140787,0.63140787 0 0 0 0.44726,-0.1836 l 6,-6 a 0.63140787,0.63140787 0 0 0 -0.44726,-1.07812 z m 29.67187,0 a 0.63140787,0.63140787 0 0 0 -0.44726,0.18359 l -3,3 a 0.63140787,0.63140787 0 0 0 -0.1836,0.44727 v 18 a 0.63140787,0.63140787 0 0 0 0.1836,0.44726 l 3,3 a 0.63140787,0.63140787 0 0 0 0.44726,0.1836 h 15 a 0.63140787,0.63140787 0 0 0 0.44727,-0.1836 l 3,-3 A 0.63140787,0.63140787 0 0 0 231,161.31836 v -18 a 0.63140787,0.63140787 0 0 0 -0.18359,-0.44727 l -3,-3 a 0.63140787,0.63140787 0 0 0 -0.44727,-0.18359 z m 23.67188,0 a 0.63140787,0.63140787 0 0 0 -0.44727,0.18359 l -3,3 a 0.63140787,0.63140787 0 0 0 -0.18359,0.44727 v 21 a 0.63140787,0.63140787 0 0 0 0.63086,0.63086 h 6 a 0.63140787,0.63140787 0 0 0 0.63086,-0.63086 v -17.36914 h 1.73828 v 17.36914 a 0.63140787,0.63140787 0 0 0 0.63086,0.63086 h 6 a 0.63140787,0.63140787 0 0 0 0.63086,-0.63086 v -17.36914 h 1.73828 v 17.36914 a 0.63140787,0.63140787 0 0 0 0.63086,0.63086 h 6 a 0.63140787,0.63140787 0 0 0 0.63086,-0.63086 v -21 a 0.63140787,0.63140787 0 0 0 -0.1836,-0.44727 l -3,-3 a 0.63140787,0.63140787 0 0 0 -0.44726,-0.18359 h -7.5 a 0.63140787,0.63140787 0 0 0 -0.56446,0.34766 l -0.93554,1.87109 -0.93555,-1.87109 a 0.63140787,0.63140787 0 0 0 -0.56445,-0.34766 z M 216,146.94922 h 7.73828 V 157.6875 H 216 Z m -167.574219,24.7832 a 0.63140787,0.63140787 0 0 0 -0.447265,0.1836 l -3.445313,3.44531 a 0.63140787,0.63140787 0 0 0 -0.183594,0.44726 v 20.67774 a 0.63140787,0.63140787 0 0 0 0.183594,0.44726 l 3.445313,3.44532 a 0.63140787,0.63140787 0 0 0 0.447265,0.18359 h 20.677735 a 0.63140787,0.63140787 0 0 0 0.630859,-0.63086 v -6.89258 A 0.63140787,0.63140787 0 0 0 69.103516,192.4082 H 52.501953 V 179.88672 H 65.65625 a 0.63140787,0.63140787 0 0 0 0.564453,-0.34766 l 3.447266,-6.89258 a 0.63140787,0.63140787 0 0 0 -0.564453,-0.91406 z m 27.191407,0 a 0.63140787,0.63140787 0 0 0 -0.447266,0.1836 l -3.445313,3.44531 a 0.63140787,0.63140787 0 0 0 -0.183593,0.44726 v 20.67774 a 0.63140787,0.63140787 0 0 0 0.183593,0.44726 l 3.445313,3.44532 a 0.63140787,0.63140787 0 0 0 0.447266,0.18359 h 17.230468 a 0.63140787,0.63140787 0 0 0 0.447266,-0.18359 l 3.447266,-3.44532 a 0.63140787,0.63140787 0 0 0 0.183593,-0.44726 v -20.67774 a 0.63140787,0.63140787 0 0 0 -0.183593,-0.44726 l -3.447266,-3.44531 a 0.63140787,0.63140787 0 0 0 -0.447266,-0.1836 z m 23.746093,0 a 0.63140787,0.63140787 0 0 0 -0.630859,0.63086 v 27.56836 a 0.63140787,0.63140787 0 0 0 0.630859,0.63086 h 20.677739 a 0.63140787,0.63140787 0 0 0 0.56445,-0.34766 l 3.44531,-6.89257 a 0.63140787,0.63140787 0 0 0 -0.56445,-0.91407 h -16.59961 v -20.04492 a 0.63140787,0.63140787 0 0 0 -0.63086,-0.63086 z m 27.191409,0 a 0.63140787,0.63140787 0 0 0 -0.63086,0.63086 v 27.56836 a 0.63140787,0.63140787 0 0 0 0.63086,0.63086 h 20.67773 a 0.63140787,0.63140787 0 0 0 0.56446,-0.34766 l 3.44531,-6.89257 a 0.63140787,0.63140787 0 0 0 -0.56446,-0.91407 h -16.59961 v -20.04492 a 0.63140787,0.63140787 0 0 0 -0.63085,-0.63086 z m 27.19336,0 a 0.63140787,0.63140787 0 0 0 -0.63086,0.63086 v 27.56836 a 0.63140787,0.63140787 0 0 0 0.63086,0.63086 h 20.67578 a 0.63140787,0.63140787 0 0 0 0.63086,-0.63086 v -6.89258 a 0.63140787,0.63140787 0 0 0 -0.63086,-0.63086 h -13.15235 v -2.18359 h 13.15235 a 0.63140787,0.63140787 0 0 0 0.63086,-0.63086 v -6.89258 a 0.63140787,0.63140787 0 0 0 -0.63086,-0.63086 h -13.15235 v -2.18359 h 13.15235 a 0.63140787,0.63140787 0 0 0 0.63086,-0.63086 v -6.89258 a 0.63140787,0.63140787 0 0 0 -0.63086,-0.63086 z m 27.1914,0 a 0.63140787,0.63140787 0 0 0 -0.44726,0.1836 l -3.44531,3.44531 a 0.63140787,0.63140787 0 0 0 -0.1836,0.44726 v 20.67774 a 0.63140787,0.63140787 0 0 0 0.1836,0.44726 l 3.44531,3.44532 a 0.63140787,0.63140787 0 0 0 0.44726,0.18359 h 20.67578 a 0.63140787,0.63140787 0 0 0 0.63086,-0.63086 v -6.89258 a 0.63140787,0.63140787 0 0 0 -0.63086,-0.63086 h -16.59961 v -12.52148 h 13.1543 a 0.63140787,0.63140787 0 0 0 0.56446,-0.34766 l 3.44531,-6.89258 a 0.63140787,0.63140787 0 0 0 -0.56446,-0.91406 z m 23.7461,0 a 0.63140787,0.63140787 0 0 0 -0.63086,0.63086 v 6.89258 a 0.63140787,0.63140787 0 0 0 0.63086,0.63086 h 7.98437 v 20.04492 a 0.63140787,0.63140787 0 0 0 0.63086,0.63086 h 6.89258 a 0.63140787,0.63140787 0 0 0 0.63086,-0.63086 v -20.04492 h 7.98437 a 0.63140787,0.63140787 0 0 0 0.63086,-0.63086 v -6.89258 a 0.63140787,0.63140787 0 0 0 -0.63086,-0.63086 z m 27.1914,0 a 0.63140787,0.63140787 0 0 0 -0.63086,0.63086 v 27.56836 a 0.63140787,0.63140787 0 0 0 0.63086,0.63086 h 6.89258 a 0.63140787,0.63140787 0 0 0 0.63086,-0.63086 v -27.56836 a 0.63140787,0.63140787 0 0 0 -0.63086,-0.63086 z m 13.40821,0 a 0.63140787,0.63140787 0 0 0 -0.44727,0.1836 l -3.44727,3.44531 a 0.63140787,0.63140787 0 0 0 -0.18359,0.44726 v 20.67774 a 0.63140787,0.63140787 0 0 0 0.18359,0.44726 l 3.44727,3.44532 a 0.63140787,0.63140787 0 0 0 0.44727,0.18359 h 17.23046 a 0.63140787,0.63140787 0 0 0 0.44727,-0.18359 l 3.44531,-3.44532 a 0.63140787,0.63140787 0 0 0 0.1836,-0.44726 v -20.67774 a 0.63140787,0.63140787 0 0 0 -0.1836,-0.44726 l -3.44531,-3.44531 a 0.63140787,0.63140787 0 0 0 -0.44727,-0.1836 z m 23.74609,0 a 0.63140787,0.63140787 0 0 0 -0.63086,0.63086 v 27.56836 a 0.63140787,0.63140787 0 0 0 0.63086,0.63086 h 6.89063 a 0.63140787,0.63140787 0 0 0 0.63085,-0.63086 V 185.375 l 7.41993,14.83984 a 0.63140787,0.63140787 0 0 0 0.56445,0.34766 h 8.61523 a 0.63140787,0.63140787 0 0 0 0.63086,-0.63086 v -27.56836 a 0.63140787,0.63140787 0 0 0 -0.63086,-0.63086 h -6.89062 a 0.63140787,0.63140787 0 0 0 -0.63086,0.63086 v 14.55664 l -7.41992,-14.83984 a 0.63140787,0.63140787 0 0 0 -0.56446,-0.34766 z m 30.63672,0 a 0.63140787,0.63140787 0 0 0 -0.44727,0.1836 l -3.44531,3.44531 a 0.63140787,0.63140787 0 0 0 -0.18359,0.44726 v 10.33985 a 0.63140787,0.63140787 0 0 0 0.18359,0.44726 l 3.44531,3.44532 a 0.63140787,0.63140787 0 0 0 0.44727,0.18359 h 13.1543 v 2.18359 h -16.59961 a 0.63140787,0.63140787 0 0 0 -0.63086,0.63086 v 6.89258 a 0.63140787,0.63140787 0 0 0 0.63086,0.63086 h 17.23046 a 0.63140787,0.63140787 0 0 0 0.44727,-0.18359 l 6.89258,-6.89258 a 0.63140787,0.63140787 0 0 0 0.18359,-0.44727 v -10.33789 a 0.63140787,0.63140787 0 0 0 -0.63086,-0.63086 h -16.59961 v -2.18359 h 16.59961 a 0.63140787,0.63140787 0 0 0 0.63086,-0.63086 v -6.89258 a 0.63140787,0.63140787 0 0 0 -0.63086,-0.63086 z m -219.972658,8.1543 h 9.076172 v 12.52148 h -9.076172 z m 169.666018,0 h 9.07617 v 12.52148 h -9.07617 z"
               style="font-style:normal;font-variant:normal;font-weight:normal;font-stretch:normal;line-height:8.9508543px;font-family:Guardians;-inkscape-font-specification:Guardians;text-align:center;text-anchor:middle;stroke-width:0.68922102px"
               transform="matrix(0.26458333,0,0,0.26458333,15.635294,241.12131)" />
          </g>
          <g
             style="fill:#3aaae2;fill-opacity:1"
             transform="translate(-5.7500442,19.547643)"
             id="g5790">
            <path
               inkscape:connector-curvature="0"
               d="m 33.569901,297.02804 -0.911572,0.91158 v 5.47098 l 0.911572,0.91157 h 5.470984 v -1.82366 h -4.559412 v -3.64681 h 3.647323 l 0.912089,-1.82366 z m 7.194392,0 -0.911572,0.91158 v 5.47098 l 0.911572,0.91157 h 4.558895 l 0.912089,-0.91157 v -5.47098 l -0.912089,-0.91158 z m 6.282821,0 v 7.29413 h 5.470985 l 0.911571,-1.82366 h -4.558895 v -5.47047 z m 7.194393,0 v 7.29413 h 5.470983 l 0.911574,-1.82366 h -4.558895 v -5.47047 z m 7.19491,0 v 7.29413 h 5.470467 v -1.82366 h -3.646805 v -0.91157 h 3.646805 v -1.82366 h -3.646805 v -0.91158 h 3.646805 v -1.82366 z m 7.194391,0 -0.911572,0.91158 v 5.47098 l 0.911572,0.91157 h 5.470469 v -1.82366 h -4.558895 v -3.64681 h 3.647321 l 0.911574,-1.82366 z m 6.282822,0 v 1.82366 h 2.279446 v 5.47047 h 1.823662 v -5.47047 h 2.279449 v -1.82366 z m 7.194391,0 v 7.29413 h 1.823662 v -7.29413 z m 3.547589,0 -0.91209,0.91158 v 5.47098 l 0.91209,0.91157 h 4.558895 l 0.911572,-0.91157 v -5.47098 l -0.911572,-0.91158 z m 6.28282,0 v 7.29413 h 1.823146 v -4.55889 l 2.279446,4.55889 h 2.279449 v -7.29413 h -1.823146 v 4.5589 l -2.279446,-4.5589 z m 8.10596,0 -0.911566,0.91158 v 2.73575 l 0.911566,0.91157 h 3.64733 v 0.91157 h -4.558896 v 1.82366 h 4.558896 l 1.82366,-1.82366 v -2.73523 h -4.5589 v -0.91158 h 4.5589 v -1.82366 z m -58.368007,1.82366 h 2.735233 v 3.64681 h -2.735233 z m 44.890799,0 h 2.735233 v 3.64681 h -2.735233 z m -36.260836,-10.30221 -0.79375,0.79375 v 4.7625 l 0.79375,0.79375 h 4.7625 v -1.5875 h -3.96875 v -3.175 h 3.175 l 0.79375,-1.5875 z m 5.469435,0 v 5.55625 l 0.79375,0.79375 h 3.96875 l 0.79375,-1.5875 v -4.7625 h -1.5875 v 4.7625 h -2.38125 v -4.7625 z m 7.056932,0 -0.79375,0.79375 v 2.38125 l 0.79375,0.79375 h 3.175 v 0.79375 h -3.96875 v 1.5875 h 3.96875 l 1.5875,-1.5875 v -2.38125 h -3.96875 v -0.79375 h 3.96875 l 0.79375,-1.5875 z m 6.263185,0 v 1.5875 h 1.984375 v 4.7625 h 1.5875 v -4.7625 h 1.190625 l 1.5875,-1.5875 z m 7.850682,0 -0.79375,0.79375 v 4.7625 l 0.79375,0.79375 h 3.96875 l 0.79375,-0.79375 v -4.7625 l -0.79375,-0.79375 z m 6.263185,0 -0.79375,0.79375 v 5.55625 h 1.5875 v -4.7625 h 0.79375 v 4.7625 h 1.5875 v -4.7625 h 0.79375 v 4.7625 h 1.5875 v -5.55625 l -0.79375,-0.79375 H 85.98789 l -0.396875,0.79375 -0.396875,-0.79375 z m -5.469435,1.5875 h 2.38125 v 3.175 h -2.38125 z"
               style="font-style:normal;font-variant:normal;font-weight:normal;font-stretch:normal;line-height:8.9508543px;font-family:Guardians;-inkscape-font-specification:Guardians;text-align:center;text-anchor:middle;fill:url(#linearGradient5823);fill-opacity:1;stroke-width:0.18235639px"
               id="path5742" />
          </g>
          <g
             style="fill:#3aaae2;fill-opacity:1"
             transform="translate(0.28348214,24.379464)"
             id="g5777" />
          <g
             id="g5796"
             transform="translate(0.28348214,24.379464)" />
        </g>
      </g>
    </g>
  </g>
</svg>
