<?xml version="1.0" encoding="UTF-8" standalone="no"?>
<!-- Created with Inkscape (http://www.inkscape.org/) -->

<svg
   xmlns:dc="http://purl.org/dc/elements/1.1/"
   xmlns:cc="http://creativecommons.org/ns#"
   xmlns:rdf="http://www.w3.org/1999/02/22-rdf-syntax-ns#"
   xmlns:svg="http://www.w3.org/2000/svg"
   xmlns="http://www.w3.org/2000/svg"
   xmlns:xlink="http://www.w3.org/1999/xlink"
   xmlns:sodipodi="http://sodipodi.sourceforge.net/DTD/sodipodi-0.dtd"
   xmlns:inkscape="http://www.inkscape.org/namespaces/inkscape"
   version="1.1"
   id="svg954"
   width="700"
   height="150"
   viewBox="0 0 700 150"
   sodipodi:docname="system.svg"
   inkscape:version="0.92.2 (5c3e80d, 2017-08-06)">
  <metadata
     id="metadata960">
    <rdf:RDF>
      <cc:Work
         rdf:about="">
        <dc:format>image/svg+xml</dc:format>
        <dc:type
           rdf:resource="http://purl.org/dc/dcmitype/StillImage" />
        <dc:title></dc:title>
      </cc:Work>
    </rdf:RDF>
  </metadata>
  <defs
     id="defs958" />
  <sodipodi:namedview
     pagecolor="#ffffff"
     bordercolor="#666666"
     borderopacity="1"
     objecttolerance="10"
     gridtolerance="10"
     guidetolerance="10"
     inkscape:pageopacity="0"
     inkscape:pageshadow="2"
     inkscape:window-width="1366"
     inkscape:window-height="705"
     id="namedview956"
     showgrid="false"
     inkscape:pagecheckerboard="true"
     inkscape:zoom="0.82"
     inkscape:cx="435.83886"
     inkscape:cy="62.71802"
     inkscape:window-x="-8"
     inkscape:window-y="-8"
     inkscape:window-maximized="1"
     inkscape:current-layer="layer1" />
  <g
     inkscape:groupmode="layer"
     id="layer1"
     inkscape:label="Original">
 
    <path
       style="fill:#ff0000"
       d="M 11.189635,136.25 11.5,132.5 23.179432,132 c 13.467982,-0.57657 16.340166,-1.90815 18.736665,-8.68656 C 44.480435,116.06031 44.337071,116 24.531385,116 H 7 v -4 -4 h 21 21 l -0.0056,7.75 c -0.0067,9.38002 -1.232884,14.19151 -4.651968,18.25486 C 39.91188,139.2703 37.373737,140 23.489295,140 H 10.879269 Z M 51,136.56112 c 0,-3.90568 0.767817,-4.31496 9,-4.7974 4.069634,-0.2385 4.529853,-0.52249 4.81215,-2.96945 0.300613,-2.60571 0.559348,-2.7166 7,-3 C 75.490468,125.63242 78.5,125.05 78.5,124.5 c 0,-0.60469 -5.43548,-1.10998 -13.75,-1.27822 L 51,122.94356 V 118.97178 115 h 17 17 v 6.92742 c 0,6.29273 -0.241405,7.11731 -2.634859,9 -1.775626,1.39671 -4.139865,2.08514 -7.25,2.1111 -4.091347,0.0341 -4.84403,0.40301 -6.631878,3.25 -1.954051,3.11166 -2.257104,3.22056 -9.75,3.50354 L 51,140.08413 Z m 66.5,2.80767 c -1.65,-0.18234 -7.5,-0.81978 -13,-1.41652 C 86.933645,136.04636 88,136.41115 88,132.30776 v -3.60161 l 9.25,0.62464 c 5.0875,0.34355 10.15,0.80823 11.25,1.03261 1.1,0.22439 6.1625,0.73793 11.25,1.14121 l 9.25,0.73323 V 136.11892 140 l -4.25,-0.14983 c -2.3375,-0.0824 -5.6,-0.29903 -7.25,-0.48138 z m 20.5,-3.28031 v -3.91153 l 10.98326,-0.33847 c 10.77468,-0.33205 11.0425,-0.39777 14.10267,-3.46038 2.88942,-2.89173 3.15909,-3.75802 3.6577,-11.75 0.51451,-8.24704 0.64247,-8.6281 2.89733,-8.6281 2.32677,0 2.35904,0.14158 2.35904,10.34996 0,9.89777 -0.13021,10.52971 -2.98028,14.46413 C 164.50527,139.04609 161.85431,140 149.04966,140 H 138 Z M 231.18963,136.25 231.5,132.5 248.75,132.22639 266,131.95277 V 124 116.04723 L 248.75,115.77361 231.5,115.5 v -3.5 -3.5 l 20.75,-0.27029 20.75,-0.27029 V 123.97971 140 H 251.93963 230.87927 Z M 276,136 v -4 h 13.98422 13.98423 l 3.26577,-2.91727 c 3.16742,-2.82941 3.27631,-3.19082 3.61528,-12 L 311.199,108 H 314.0995 317 v 8.97976 c 0,11.20955 -1.78368,16.1266 -7.2994,20.12216 C 305.71421,139.98965 305.64689,140 290.84996,140 H 276 Z m 47.48768,2.34482 C 320.62007,135.47722 320,132.20412 320,119.9349 V 108 h 3 c 2.83333,0 3,0.22222 3,4 v 4 h 11.03138 c 8.88319,0 11.14348,0.2921 11.60699,1.5 0.31659,0.825 1.20246,1.5 1.96862,1.5 1.61105,0 1.8614,-1.59249 0.39301,-2.5 -1.69837,-1.04965 -1.10533,-5.0947 1.03028,-7.0274 4.29046,-3.88281 11.28036,2.59784 8.1714,7.57606 -0.98321,1.57437 -0.95705,1.95134 0.13542,1.95134 0.84588,0 1.29922,1.03205 1.20796,2.75 l -0.14608,2.75 -17.69949,0.27307 L 326,125.04615 v 2.35448 c 0,1.29496 0.59471,2.84805 1.32159,3.4513 0.80748,0.67015 7.6988,1.20404 17.71533,1.37244 l 16.39375,0.27563 0.10315,3.75 0.10314,3.75 h -18.24705 c -15.64659,0 -18.48294,-0.23589 -19.90223,-1.65518 z m 32.93053,-21.95181 c 2.0136,-0.77269 2.06158,-4.27167 0.0691,-5.03627 -2.42296,-0.92977 -4.63903,1.49117 -3.43107,3.74827 1.13539,2.1215 1.1627,2.13196 3.36201,1.288 z M 364.18963,136.25 364.5,132.5 375,132 l 10.5,-0.5 0.30361,-3.11935 c 0.37054,-3.80687 -1.06673,-4.34729 -11.61398,-4.367 L 366.87927,124 367.18963,120.25 367.5,116.5 h 11.5 11.5 l 0.29206,7.75 0.29207,7.75 h 2.95793 c 2.78426,0 2.95794,0.23486 2.95794,4 v 4 H 380.43963 363.87927 Z M 439,137.2 c 0,-4.65386 1.43027,-5.2 13.61821,-5.2 C 463.89318,132 467,131.54484 467,129.89301 467,129.40186 462.5,129 457,129 h -10 v -3.96826 -3.96827 l 11.73792,-0.28173 c 10.25237,-0.24608 11.78037,-0.50322 12.07333,-2.03174 0.30449,-1.58872 -0.77959,-1.75 -11.76268,-1.75 H 446.9505 l -1.04186,2.75 C 444.3921,123.75292 440.9959,127 438.32569,127 436.32227,127 436,126.50132 436,123.40121 c 0,-2.70923 0.74155,-4.2915 3,-6.40121 2.09424,-1.95631 3,-3.74497 3,-5.92428 v -3.12187 l 17.75,0.27308 17.75,0.27307 0.29403,7.85939 c 0.38227,10.21796 -1.6415,16.54499 -6.59924,20.63158 L 467.54431,140 H 453.27216 439 Z m -320.5,-8.22216 c -3.85,-0.40087 -12.2875,-1.30079 -18.75,-1.99983 L 88,125.70703 v -3.95501 -3.955 l 7.25,0.64148 c 3.9875,0.35282 10.175,1.05174 13.75,1.55315 3.575,0.50142 9.5375,1.19424 13.25,1.5396 l 6.75,0.62794 v 3.9204 c 0,3.12292 -0.35598,3.89058 -1.75,3.77376 -0.9625,-0.0807 -4.9,-0.47464 -8.75,-0.87551 z M 394,125 v -4 h 20 20 v 4 4 h -20 -20 z m -262,-7 v -10 h 3 3 v 10 10 h -3 -3 z m 44,6 v -4 h 19.5 19.5 v 4 4 H 195.5 176 Z m -61,-5.59093 c -6.875,-0.73372 -15.65,-1.68841 -19.5,-2.12155 l -7,-0.78752 -0.306944,-4.23867 -0.306945,-4.23868 4.806945,0.56539 c 2.643819,0.31096 7.056944,0.95234 9.806944,1.42529 2.75,0.47294 8.15,1.12737 12,1.45427 14.59142,1.23897 14.5,1.20354 14.5,5.6203 0,2.15165 -0.3375,3.85429 -0.75,3.78364 -0.4125,-0.0707 -6.375,-0.72876 -13.25,-1.46247 z m 161,-6.44081 v -4.03173 l 11.75,0.28173 11.75,0.28174 0.31037,3.75 0.31036,3.75 H 288.06037 276 Z M 6,94 v -4 h 340.05902 c 223.48004,0 339.84988,0.338385 339.44898,0.987063 -0.33553,0.542885 -2.58066,2.342885 -4.9892,4 L 676.13965,98 H 341.06982 6 Z M 285.5,79.601175 C 275.75714,76.519913 267.96412,69.691792 263.25773,60.112838 260.80541,55.121612 260.5098,53.447891 260.58846,45 c 0.10844,-11.646059 2.67518,-18.086582 10.04317,-25.200493 7.2052,-6.956746 14.45513,-9.9313177 24.09241,-9.8848792 10.76769,0.051885 17.02963,2.2540892 24.16149,8.4971382 C 321.65815,20.838842 327,27.907976 327,29.150038 327,29.617517 323.0915,30 318.31445,30 c -7.06407,0 -9.07095,-0.347512 -10.75,-1.861477 -9.66227,-8.712285 -27.39863,-2.877946 -31.96162,10.51371 -2.08854,6.129512 -1.99618,8.883242 0.4812,14.347767 3.93998,8.690675 10.31232,13.014631 19.12613,12.978038 5.18734,-0.02154 12.84888,-2.64652 14.22549,-4.873911 0.72221,-1.168562 15.74549,-1.589654 16.8625,-0.472644 0.97246,0.972457 -1.12523,4.269332 -6.10112,9.588964 -4.37471,4.67692 -6.23615,5.854548 -14.56915,9.217076 -4.59973,1.856078 -14.5214,1.936748 -20.12788,0.163652 z M 349,78.807662 C 333.53836,72.937501 325.42165,61.040444 325.59377,44.5 c 0.11163,-10.727679 3.73187,-18.876406 11.55104,-26 6.88268,-6.270419 12.92398,-8.5114803 22.92705,-8.5049461 18.71617,0.012226 31.10248,10.0092881 35.40905,28.5788561 1.37404,5.924744 1.3619,7.154461 -0.13055,13.229008 -1.94016,7.896733 -3.08715,10.356073 -7.29035,15.631628 C 378.85953,78.982325 362.22075,83.827045 349,78.807662 Z m 21.09272,-15.114665 c 2.70487,-1.415871 5.66266,-4.163431 7.65728,-7.113014 C 380.62383,52.330246 381,50.989914 381,45 381,39.007492 380.62507,37.673054 377.75,33.432666 373.89043,27.740258 368.70239,24.80572 361.43234,24.202832 351.8283,23.40639 342.61493,30.28891 339.92817,40.266742 336.60024,52.625757 347.29195,66 360.5,66 c 3.47519,0 6.63903,-0.76089 9.59272,-2.307003 z m 55.81337,12.605108 C 424.77085,73.659147 421.81024,66.55 419.32697,60.5 416.8437,54.45 414.40425,49.0725 413.90596,48.55 413.36287,47.980504 413,54.088588 413,63.8 V 80 h -7 -7 V 45.5 11 h 7.83102 c 9.1525,0 7.33138,-2.1952082 16.17697,19.5 7.50932,18.417786 11.15395,26.5 11.95003,26.5 0.58268,0 9.67248,-20.66146 14.04263,-31.919433 1.15705,-2.980688 2.99149,-7.368188 4.07654,-9.75 L 455.04999,11 h 7.475 H 470 V 46.047717 81.095435 L 463.75,80.797717 457.5,80.5 457.22582,63.75 C 457.07502,54.5375 456.55471,47 456.06957,47 c -0.48514,0 -2.97621,5.0625 -5.53571,11.25 -2.5595,6.1875 -5.86419,13.725 -7.34375,16.75 l -2.69011,5.5 -6.26492,0.298105 -6.26491,0.298104 z M 473,46.04569 V 11 h 14.53984 c 15.96584,0 19.15495,0.86119 24.65711,6.658417 5.87767,6.192874 7.56097,17.093946 3.83594,24.841583 -2.58074,5.367657 -3.76986,6.69155 -8.92864,9.940608 -3.50426,2.207026 -5.98262,2.87726 -12.22035,3.304803 l -7.8246,0.536311 -0.27965,12.109139 L 486.5,80.5 479.75,80.79569 473,81.09138 Z m 28.17901,-8.070858 c 2.44853,-2.448524 2.89555,-3.544564 2.34517,-5.75 -1.27893,-5.124787 -3.29212,-6.340145 -9.9678,-6.017524 L 487.5,26.5 487.20619,33.75 486.91238,41 h 5.62073 c 4.92232,0 5.99663,-0.375899 8.6459,-3.025168 z M 534,78.919087 C 527.71877,76.0758 524.33447,72.509882 522.00288,66.278158 520.1955,61.447484 520,58.488457 520,35.962487 V 11 h 7 7 v 23.54966 c 0,19.0489 0.28865,24.107857 1.51035,26.470356 2.82462,5.462213 8.47694,6.574638 12.84363,2.527733 L 551,61.095498 V 36.047749 11 h 7 7 v 26.684276 c 0,24.977234 -0.13298,26.958972 -2.0787,30.978305 -2.1099,4.358472 -7.14108,8.942049 -12.21835,11.131344 C 546.51116,81.601404 539.06393,81.211346 534,78.919087 Z m 44.70762,1.455203 C 578.31843,79.985097 578,67.591667 578,52.833333 V 26 h -5 -5 V 18.5 11 h 18 18 v 7.5 7.5 h -5.48393 -5.48393 L 592.76607,53.25 592.5,80.5 l -6.54238,0.290957 c -3.5983,0.160026 -6.8608,-0.02747 -7.25,-0.416667 z M 606,46 V 11 h 18.54381 18.54381 L 642.79381,18.25 642.5,25.5 631.75,25.783832 621,26.067663 V 32.533832 39 h 11.04381 11.04381 L 642.79381,46.25 642.5,53.5 631.75,53.783832 621,54.067663 V 60.033832 66 h 11 11 V 73.5 81 H 624.5 606 Z m 39,0 V 11 h 15.13398 c 8.44765,0 16.81717,0.504294 18.94374,1.141431 4.80578,1.439848 10.28291,5.920489 13.73827,11.238796 2.31725,3.56657 2.66923,5.126874 2.62128,11.619773 -0.0417,5.645077 -0.58641,8.520012 -2.20248,11.624209 C 691.15693,50.615437 685.80928,56 683.92327,56 c -1.79831,0 -0.88105,3.162081 2.4094,8.305869 C 690.92859,71.490451 695,78.879314 695,80.035483 c 0,0.538378 -3.42408,0.954291 -7.75,0.941372 l -7.75,-0.02315 -4,-7.176822 C 673.3,69.829634 670.0375,64.450898 668.25,61.824139 666.4625,59.19738 665,56.806055 665,56.510083 665,55.465643 660.48988,49.02459 659.75,49.012379 659.3375,49.00557 659,56.2 659,65 v 16 h -7 -7 z m 29.74707,-3.538787 c 2.02556,-0.846333 4.02922,-2.083833 4.45257,-2.75 1.47612,-2.322748 0.82598,-7.685589 -1.1742,-9.685777 -2.58492,-2.584915 -5.32983,-3.203384 -12.56711,-2.831556 L 659.5,27.5 l -0.29708,7.411888 c -0.21058,5.253795 0.0806,7.651459 1,8.234687 2.14112,1.358214 10.6081,0.959226 14.54415,-0.685362 z M 6,45 V 10 H 25.5 45 v 6.968265 6.968264 L 33.25,24.218265 21.5,24.5 21.20431,31.25 20.90862,38 h 11.501881 11.50188 l 0.293809,7.25 0.29381,7.25 6,-8.21093 C 53.8,39.773058 58.075,33.792497 60,30.998934 63.244433,26.290606 65.051486,23.769746 72.364723,13.75 74.996959,10.143617 75.329621,10 81.050891,10 H 87 V 45 80 H 80 73 V 74.5 69 H 61.620145 50.240291 L 46.08775,74.5 41.93521,80 H 33.967605 C 29.585422,80 26,79.719646 26,79.376991 26,78.815177 28.936844,74.572387 38.720488,61 c 6.270697,-8.699042 6.81117,-8 -6.185304,-8 H 21 V 66.5 80 H 13.5 6 Z m 67,2 C 73,38.885494 72.060722,37.149507 69.877484,41.228923 69.221399,42.45483 66.955566,45.645239 64.842301,48.31872 62.729035,50.992202 61,53.589186 61,54.089798 61,54.590409 63.7,55 67,55 h 6 z M 89,45 V 10 h 8.041742 8.041738 l 3.36135,7.25 c 1.84874,3.9875 4.71988,10.4 6.38031,14.25 5.95231,13.801455 9.96233,22.6208 10.55465,23.213124 0.33139,0.331386 1.99316,-2.506 3.69282,-6.305302 1.69967,-3.799302 4.40365,-9.643384 6.00885,-12.986848 C 136.68666,32.077509 138,29.051278 138,28.696016 c 0,-0.355262 1.40024,-3.694701 3.11165,-7.420974 1.71141,-3.726273 3.50027,-7.787542 3.97525,-9.025042 0.7897,-2.057479 1.50745,-2.25 8.38835,-2.25 H 161 V 45 80 H 154.5 148 V 63.440983 c 0,-10.813694 -0.34787,-16.344019 -1.00263,-15.939356 -0.55145,0.340814 -1.95669,2.729872 -3.12275,5.309017 C 142.70855,55.38979 140.09021,61.1 138.05607,65.5 c -2.03413,4.4 -4.33874,9.4625 -5.12136,11.25 -1.39633,3.189236 -1.54493,3.25 -7.94805,3.25 h -6.52511 l -6.4651,-15.085803 C 108.44065,56.617006 105.1868,49.615448 104.76568,49.35518 104.34455,49.094912 104,55.883524 104,64.440983 V 80 H 96.5 89 Z m 75,0 V 10 h 7 7 v 35 35 h -7 -7 z m 16.66667,34.333333 C 179.83363,78.5003 179.7766,13.745758 180.60699,11.581788 181.07906,10.351581 182.74256,10 188.09117,10 h 6.87719 l 0.26582,27.75 0.26582,27.75 8.5,0.5 8.5,0.5 0.29569,6.75 0.29569,6.75 h -15.87902 c -8.73347,0 -16.17903,-0.3 -16.54569,-0.666667 z M 218,66.583053 c 0,-13.295988 -0.0302,-13.474042 -3.35319,-19.75 -10.67743,-20.166088 -17.7216,-34.903015 -17.13621,-35.850205 0.39702,-0.642386 3.48006,-1.0011645 7.57555,-0.881579 l 6.90608,0.201653 5.14075,10.098539 c 2.82741,5.554196 5.64166,11.107528 6.25388,12.340737 0.61223,1.233209 1.56314,2.234147 2.11314,2.224306 0.55,-0.0098 3.95062,-5.518829 7.55694,-12.242198 L 239.61389,10.5 l 6.33773,-0.301473 c 10.01796,-0.4765334 9.96791,-0.662456 3.24346,12.048522 -3.27421,6.189123 -8.25755,15.634215 -11.07409,20.989093 L 233,52.972283 V 66.486142 80 h -7.5 -7.5 z"
       id="path5924"
       inkscape:connector-curvature="0" />
  </g>
</svg>
